<?xml version="1.0" standalone="no"?>
<!DOCTYPE svg PUBLIC "-//W3C//DTD SVG 20010904//EN"
 "http://www.w3.org/TR/2001/REC-SVG-20010904/DTD/svg10.dtd">
<svg version="1.0" xmlns="http://www.w3.org/2000/svg"
 width="323.000000pt" height="375.000000pt" viewBox="0 0 323.000000 375.000000"
 preserveAspectRatio="xMidYMid meet">
<metadata>
Created by potrace 1.16, written by Peter Selinger 2001-2019
</metadata>
<g transform="translate(0.000000,375.000000) scale(0.100000,-0.100000)"
fill="#000000" stroke="none">
<path d="M2398 3730 c104 -28 187 -75 263 -150 107 -106 103 -79 107 -662 3
-466 2 -498 -14 -498 -10 0 -14 3 -11 7 4 3 3 11 -2 17 -5 6 -12 58 -15 116
-16 248 -24 345 -41 530 -4 41 -8 86 -9 100 -1 14 -6 32 -11 39 -6 10 -4 12 5
6 9 -6 11 -4 5 5 -4 7 -10 38 -12 69 -5 56 -24 91 -50 91 -7 0 -13 7 -13 15 0
8 -9 15 -19 15 -11 0 -23 5 -27 12 -5 7 -3 8 6 3 9 -6 11 -4 6 4 -5 7 -11 10
-14 7 -3 -3 -14 2 -25 11 -15 13 -19 14 -13 3 7 -13 6 -13 -6 0 -18 20 -83 56
-73 40 5 -8 -1 -7 -16 3 -13 8 -31 13 -39 11 -8 -2 -31 -6 -50 -9 -19 -3 -40
-7 -45 -9 -17 -6 -46 20 -53 48 l-7 26 -36 -18 -35 -18 4 28 c2 16 -3 39 -12
54 -24 36 -84 31 -106 -9 -13 -24 -13 -30 0 -55 14 -23 14 -31 3 -52 -14 -25
-14 -25 -9 8 2 18 0 30 -5 26 -5 -3 -7 -9 -5 -13 7 -11 -11 -34 -29 -37 -11
-2 -15 3 -11 12 3 9 1 12 -4 9 -6 -3 -10 -14 -10 -23 0 -14 -2 -15 -9 -2 -6 8
-7 18 -4 24 3 5 1 6 -5 2 -6 -4 -9 -13 -5 -22 4 -12 1 -13 -20 -5 -26 10 -37
6 -37 -13 0 -6 5 -4 10 4 6 9 10 10 10 3 0 -8 52 -12 188 -13 148 0 202 -5
261 -20 91 -23 177 -74 216 -130 l30 -42 3 -424 c2 -365 0 -428 -13 -453 -19
-39 -124 -113 -196 -139 -31 -11 -90 -25 -133 -31 -107 -15 -1381 -15 -1461 0
-71 13 -168 55 -212 93 -17 14 -41 47 -53 71 -12 25 -28 45 -36 45 -9 0 -13 4
-10 9 7 11 -13 9 -32 -3 -8 -5 -12 -3 -10 6 2 7 -3 12 -10 10 -8 -1 -11 2 -8
7 4 5 3 11 -1 14 -5 2 -3 3 3 1 6 -1 11 10 10 26 -1 22 -4 26 -14 18 -9 -8
-11 -7 -6 5 3 8 0 25 -6 37 -7 13 -8 20 -3 17 5 -4 10 0 10 8 0 8 -5 11 -10 8
-6 -4 -8 0 -4 10 3 10 2 17 -4 17 -6 0 -5 8 2 21 8 15 8 19 0 15 -7 -5 -11 6
-12 31 -1 21 -2 52 -4 68 -2 17 -4 172 -6 346 l-4 315 29 57 c37 75 116 146
217 197 45 22 76 40 70 40 -34 0 -251 -137 -251 -158 0 -4 -10 -18 -23 -32
-32 -35 -64 -90 -74 -125 -4 -17 -8 -262 -10 -545 -2 -566 -3 -556 59 -650 47
-70 163 -166 213 -177 5 -1 42 -13 80 -27 39 -14 93 -29 120 -33 l50 -7 -65
-11 c-36 -7 -90 -16 -121 -19 -85 -11 -99 -31 -100 -139 l-1 -86 -28 -6 c-16
-3 -34 -13 -41 -21 -6 -8 -24 -14 -39 -14 -19 0 -37 -11 -59 -35 -17 -19 -34
-35 -39 -35 -14 0 -69 -63 -77 -87 -3 -13 -11 -23 -16 -23 -10 0 -32 -44 -34
-72 -1 -10 -7 -23 -13 -30 -13 -17 -44 -141 -42 -170 1 -13 1 -26 0 -30 -4 -9
-9 -99 -10 -148 -1 -43 -19 -114 -27 -106 -4 4 -14 -8 -22 -26 -18 -38 -50
-87 -68 -106 -7 -8 -11 -18 -8 -23 4 -5 2 -9 -4 -9 -26 0 -48 -161 -30 -217
37 -119 74 -160 148 -168 36 -4 45 0 80 33 29 27 43 53 56 97 26 93 26 94 42
45 7 -25 15 -49 16 -55 5 -17 29 -59 44 -73 9 -9 35 -13 80 -11 116 4 141 36
168 216 l16 112 -37 108 c-33 98 -61 143 -87 143 -9 0 -7 29 9 193 2 21 8 45
13 55 7 12 10 -14 9 -86 0 -92 2 -107 22 -134 12 -16 24 -50 27 -76 17 -153
117 -282 286 -366 51 -26 101 -48 112 -50 97 -17 103 -19 98 -33 -3 -7 -8 -11
-11 -9 -8 9 -29 -39 -40 -91 -18 -88 -8 -188 24 -250 44 -85 107 -124 219
-139 44 -6 534 -7 575 -1 126 17 179 47 227 127 53 90 49 270 -8 352 -22 31
-23 34 -6 36 22 2 100 23 111 30 6 4 13 7 16 8 38 7 145 81 197 135 58 59 103
147 110 214 5 43 13 63 40 95 l34 39 -3 131 c-2 98 0 130 9 130 24 0 47 -62
58 -155 17 -143 16 -146 -21 -183 -19 -19 -35 -38 -35 -43 -2 -14 -4 -20 -32
-106 -23 -71 -25 -89 -17 -135 9 -52 20 -122 25 -164 5 -35 48 -103 70 -108
27 -8 104 -6 135 3 30 8 57 60 80 149 16 62 30 55 45 -24 2 -10 4 -19 5 -19 1
0 4 -13 6 -30 7 -46 55 -108 91 -118 25 -8 40 -5 74 12 58 31 65 40 96 122 26
70 26 75 14 157 -13 91 -33 138 -78 188 -15 17 -32 38 -38 46 -5 8 -18 26 -27
39 -13 19 -18 55 -23 169 -3 80 -9 156 -14 170 -5 14 -12 42 -16 63 -3 20 -10
37 -14 37 -5 0 -12 15 -15 33 -8 40 -95 168 -125 183 -12 6 -29 21 -37 33 -18
25 -64 50 -81 44 -7 -2 -25 6 -42 18 -20 15 -39 20 -60 17 -30 -4 -31 -3 -32
36 -4 149 -5 154 -30 175 -13 12 -37 20 -54 19 l-30 -1 28 -4 c30 -5 34 -15
13 -32 -13 -11 -27 -10 -86 4 -14 4 -36 8 -50 10 -32 5 -49 9 -77 19 -12 4
-37 9 -55 11 -18 2 -46 7 -63 12 -16 5 -46 9 -67 8 -20 0 -34 4 -31 9 4 5 -3
7 -15 4 -12 -4 -24 -2 -27 2 -9 15 14 21 35 10 11 -6 44 -13 73 -15 52 -4 150
-14 171 -18 6 -1 10 4 9 10 -2 7 9 15 25 19 99 22 196 65 247 109 81 71 120
115 144 165 l26 55 0 570 0 570 -29 48 c-34 58 -111 127 -191 172 -59 33 -190
76 -230 74 -11 0 13 -9 53 -19z m-1128 -1780 c0 -11 -12 -14 -378 -71 -173
-28 -205 -30 -212 -18 -9 14 39 25 195 44 28 4 91 13 140 20 50 8 117 17 150
21 33 3 61 7 62 8 7 6 43 3 43 -4z m352 -284 c21 19 42 34 47 34 5 0 16 -19
26 -42 9 -24 58 -137 109 -253 51 -115 96 -218 99 -227 4 -11 21 -19 49 -22
61 -8 563 -66 571 -66 4 0 7 -11 7 -25 0 -14 -6 -25 -12 -25 -15 0 -513 57
-576 65 -38 6 -44 11 -61 48 -25 55 -189 425 -201 455 l-10 23 -43 -35 -43
-35 -38 35 c-21 20 -39 34 -40 32 -3 -4 -176 -393 -206 -464 -25 -60 14 -50
-335 -88 -319 -36 -310 -36 -310 -6 l0 24 290 33 c160 17 296 32 303 33 7 0
23 24 36 53 13 28 67 152 121 275 l98 223 41 -40 41 -40 37 35z m43 -200 c11
-8 16 -20 12 -29 -5 -13 -12 -14 -39 -6 -48 13 -56 12 -83 -16 -63 -62 -2
-126 98 -101 22 5 27 3 27 -12 0 -31 -22 -42 -80 -42 -78 0 -120 40 -120 113
0 31 7 46 34 73 29 29 41 34 83 34 27 0 58 -6 68 -14z"/>
<path d="M1205 3118 c-80 -62 -86 -225 -12 -299 38 -38 71 -37 112 4 74 74 70
227 -7 292 -36 31 -57 31 -93 3z"/>
<path d="M1931 3114 c-34 -24 -61 -91 -61 -152 0 -139 97 -220 170 -142 108
116 11 378 -109 294z"/>
<path d="M1444 2615 c-6 -13 19 -47 131 -183 12 -13 28 -23 37 -21 23 6 169
180 166 198 -7 33 -30 18 -95 -58 -37 -45 -71 -81 -74 -81 -3 0 -30 30 -59 66
-82 102 -94 110 -106 79z"/>
</g>
</svg>
