<?xml version="1.0" standalone="no"?>
<!DOCTYPE svg PUBLIC "-//W3C//DTD SVG 20010904//EN"
 "http://www.w3.org/TR/2001/REC-SVG-20010904/DTD/svg10.dtd">
<svg version="1.0" xmlns="http://www.w3.org/2000/svg"
 width="3508.000000pt" height="1878.000000pt" viewBox="0 0 3508.000000 1878.000000"
 preserveAspectRatio="xMidYMid meet">
<metadata>
Created by potrace 1.16, written by Peter Selinger 2001-2019
</metadata>
<g transform="translate(0.000000,1878.000000) scale(0.100000,-0.100000)"
fill="#000000" stroke="none">
<path d="M7802 15842 c-86 -108 -236 -337 -311 -476 -196 -362 -319 -757 -362
-1165 -15 -148 -6 -552 15 -686 55 -334 150 -623 302 -914 62 -120 185 -316
245 -392 l29 -37 0 -882 0 -883 143 6 c1484 66 2671 1192 2807 2662 5 61 10
150 10 199 l0 88 -127 -7 c-561 -30 -1063 -194 -1508 -491 -426 -284 -765
-663 -1000 -1121 l-55 -106 0 262 0 262 69 97 c543 760 682 1705 385 2600 -85
256 -225 541 -377 767 -61 92 -194 272 -206 279 -3 2 -30 -26 -59 -62z"/>
<path d="M4774 13223 c61 -1225 840 -2266 1994 -2667 184 -64 565 -146 680
-146 l22 0 0 606 0 606 -67 131 c-226 438 -586 841 -991 1109 -367 242 -777
400 -1199 463 -99 15 -335 35 -407 35 l-39 0 7 -137z"/>
<path d="M18460 9482 l0 -2052 330 0 331 0 -3 1288 -3 1288 67 -85 c90 -116
560 -580 1213 -1196 333 -314 376 -355 480 -454 55 -52 141 -133 190 -180 50
-48 146 -140 215 -206 69 -65 243 -236 388 -378 l262 -260 0 2056 0 2057 -330
0 -331 0 3 -1268 3 -1268 -48 70 c-27 39 -92 115 -145 169 -120 123 -997 944
-1512 1417 -519 477 -659 608 -902 849 l-208 205 0 -2052z"/>
<path d="M24626 11482 c-10 -26 -289 -677 -619 -1447 -861 -2011 -1099 -2568
-1104 -2588 -5 -16 13 -17 323 -15 l329 3 177 425 c97 234 193 464 213 513
l37 87 673 0 673 0 32 -77 c44 -106 320 -769 362 -868 l34 -80 327 -3 c223 -1
327 1 327 8 0 10 -1536 3599 -1685 3938 -37 83 -70 152 -74 152 -3 0 -15 -21
-25 -48z m273 -1990 c106 -255 191 -466 188 -468 -2 -2 -200 -3 -439 -2 l-435
3 189 450 c104 248 203 494 220 548 l31 98 27 -83 c15 -46 114 -292 219 -546z"/>
<path d="M12650 9396 l0 -1966 703 0 c758 0 801 3 1017 56 399 98 685 352 784
697 68 234 52 526 -39 731 -104 235 -299 400 -572 482 l-91 28 66 26 c87 34
143 70 216 139 172 163 252 362 272 673 19 302 -66 581 -232 757 -159 170
-362 263 -685 317 -89 15 -200 18 -771 21 l-668 4 0 -1965z m1292 1339 c210
-44 348 -170 387 -353 16 -75 14 -227 -4 -297 -25 -98 -81 -198 -144 -258
-120 -115 -173 -127 -563 -127 l-298 0 0 525 0 525 274 0 c208 0 293 -4 348
-15z m-23 -1615 c339 -35 553 -184 602 -418 16 -81 7 -233 -20 -307 -47 -133
-156 -238 -306 -296 -146 -57 -181 -61 -542 -66 l-333 -5 0 551 0 551 249 0
c137 0 294 -5 350 -10z"/>
<path d="M16370 9395 l0 -1965 335 0 335 0 0 1965 0 1965 -335 0 -335 0 0
-1965z"/>
<path d="M27380 9395 l0 -1965 330 0 330 0 0 675 0 675 301 -2 302 -3 143
-220 c80 -121 203 -312 275 -425 128 -201 300 -468 400 -622 l50 -78 400 0
c317 0 399 3 393 13 -4 6 -24 37 -44 67 -53 78 -492 769 -722 1136 l-196 311
62 41 c258 169 445 477 501 824 84 523 -75 984 -433 1253 -199 149 -472 246
-777 275 -62 5 -372 10 -712 10 l-603 0 0 -1965z m1377 1320 c184 -34 352
-162 431 -326 55 -114 76 -223 69 -359 -11 -224 -101 -389 -281 -512 -141 -97
-213 -110 -618 -113 l-318 -2 0 663 0 664 319 0 c239 0 339 -4 398 -15z"/>
<path d="M4772 10890 c-9 -23 16 -335 38 -469 171 -1045 890 -1917 1887 -2292
202 -76 503 -147 696 -165 l77 -7 0 606 0 605 -63 124 c-354 690 -965 1216
-1699 1462 -265 89 -558 140 -842 148 -70 2 -90 0 -94 -12z"/>
<path d="M10510 10899 c-1026 -52 -1969 -660 -2450 -1580 l-70 -134 0 488 0
489 -112 -3 c-62 -2 -123 -5 -135 -7 l-23 -4 0 -1099 c0 -872 3 -1099 13
-1100 52 -4 224 4 331 17 887 100 1670 591 2161 1354 155 241 305 596 374 881
69 285 105 700 61 703 -8 1 -76 -1 -150 -5z"/>
<path d="M4774 8305 c29 -585 214 -1119 549 -1587 386 -539 938 -932 1569
-1117 156 -45 297 -75 457 -96 63 -8 116 -15 118 -15 2 0 3 273 3 606 l0 606
-72 140 c-145 283 -298 490 -542 733 -274 273 -522 446 -865 604 -340 156
-803 261 -1150 261 l-74 0 7 -135z"/>
<path d="M10405 8429 c-197 -18 -444 -69 -634 -131 -736 -238 -1351 -758
-1715 -1448 l-66 -125 0 489 0 489 -77 -7 c-42 -3 -102 -6 -135 -6 l-58 0 0
-2410 0 -2410 135 0 135 0 0 265 0 265 1345 0 1345 0 0 135 0 135 -1345 0
-1345 0 0 910 0 909 33 5 c17 3 70 10 117 16 47 6 139 23 205 37 1300 272
2276 1419 2332 2741 l6 152 -94 -1 c-52 -1 -134 -5 -184 -10z"/>
<path d="M16798 6130 c-270 -49 -475 -213 -569 -454 -80 -205 -75 -485 12
-682 97 -220 294 -373 529 -410 73 -11 242 -6 321 10 104 22 227 85 302 156
l62 59 -50 50 c-27 28 -58 51 -69 51 -10 0 -42 -18 -70 -40 -78 -59 -153 -90
-256 -103 -350 -44 -600 175 -618 544 -13 274 92 484 290 584 93 46 161 58
293 53 126 -6 184 -24 283 -89 36 -23 72 -39 85 -37 17 2 105 100 107 118 0
10 -104 87 -160 118 -95 53 -181 73 -320 77 -69 2 -146 0 -172 -5z"/>
<path d="M14207 5358 l-305 -763 91 -3 c108 -3 130 8 157 78 9 25 43 111 74
193 l58 147 338 0 c261 0 339 -3 343 -12 2 -7 35 -92 72 -188 83 -219 85 -220
206 -220 64 0 89 3 89 13 0 6 -135 351 -301 765 l-301 752 -108 0 -108 0 -305
-762z m423 515 c1 -10 61 -173 134 -363 l134 -345 -139 -3 c-77 -1 -202 -1
-278 0 l-140 3 119 306 c65 168 126 331 136 362 17 56 34 74 34 40z"/>
<path d="M18636 5376 c-164 -410 -300 -754 -303 -766 -5 -19 -1 -20 84 -20 74
0 95 3 115 19 17 14 46 76 98 210 l73 191 339 -2 340 -3 74 -190 c45 -117 81
-197 95 -207 17 -14 41 -18 115 -18 52 0 94 1 94 3 0 1 -137 344 -304 762
l-304 760 -109 3 -109 3 -298 -745z m423 474 c6 -21 67 -184 136 -362 68 -177
123 -324 121 -325 -2 -2 -127 -2 -278 -1 l-274 3 127 330 c71 182 131 345 135
363 8 43 18 41 33 -8z"/>
<path d="M20730 5355 l0 -767 358 4 c355 4 357 5 447 32 212 65 351 181 441
371 58 122 69 180 69 370 -1 166 -1 172 -34 267 -63 184 -186 329 -344 407
-149 73 -158 74 -569 78 l-368 4 0 -766z m750 567 c168 -55 283 -183 330 -368
25 -96 27 -288 5 -383 -48 -204 -191 -349 -383 -390 -30 -6 -149 -11 -272 -11
l-220 0 0 591 0 591 238 -4 c207 -4 245 -7 302 -26z"/>
<path d="M23110 5355 l0 -765 473 2 472 3 0 85 0 85 -367 3 -368 2 0 255 0
255 300 0 300 0 0 85 0 85 -300 0 -300 0 0 250 0 250 370 0 370 0 0 85 0 85
-475 0 -475 0 0 -765z"/>
<path d="M25130 5355 l0 -766 93 3 92 3 0 596 c0 436 3 592 11 580 6 -9 36
-61 66 -116 59 -107 302 -542 400 -715 32 -58 66 -111 75 -117 9 -7 36 -13 59
-13 58 0 81 23 150 150 76 141 250 458 360 658 l89 163 3 -596 2 -595 95 0 95
0 0 765 0 765 -105 0 c-98 0 -105 -2 -119 -22 -30 -48 -530 -965 -548 -1006
l-20 -44 -27 59 c-39 82 -539 974 -558 996 -13 14 -33 17 -115 17 l-98 0 0
-765z"/>
<path d="M27702 6098 c8 -13 135 -223 281 -468 l267 -446 0 -297 0 -297 105 0
105 0 0 301 0 301 280 464 279 464 -109 0 c-96 0 -111 -2 -127 -20 -24 -25
-386 -651 -411 -709 l-18 -45 -18 43 c-22 55 -382 679 -409 709 -19 20 -29 22
-130 22 l-109 0 14 -22z"/>
<path d="M4777 3663 c-4 -3 -7 -64 -7 -135 l0 -128 1350 0 1351 0 -3 133 -3
132 -1341 3 c-737 1 -1344 -1 -1347 -5z"/>
</g>
</svg>
