<?xml version="1.0" encoding="UTF-8"?>
<!DOCTYPE svg PUBLIC "-//W3C//DTD SVG 1.1//EN" "http://www.w3.org/Graphics/SVG/1.1/DTD/svg11.dtd">
<svg xmlns="http://www.w3.org/2000/svg" version="1.1" width="323px" height="375px" style="shape-rendering:geometricPrecision; text-rendering:geometricPrecision; image-rendering:optimizeQuality; fill-rule:evenodd; clip-rule:evenodd" xmlns:xlink="http://www.w3.org/1999/xlink">
<g><path style="opacity:1" fill="#47b5fd" d="M 79.5,-0.5 C 132.167,-0.5 184.833,-0.5 237.5,-0.5C 239.302,0.458201 241.302,1.12487 243.5,1.5C 250.255,4.76117 256.588,8.76117 262.5,13.5C 261.761,13.369 261.094,13.5357 260.5,14C 265.438,20.0858 270.105,26.2525 274.5,32.5C 275.338,32.8417 275.672,33.5084 275.5,34.5C 275.5,50.8333 275.5,67.1667 275.5,83.5C 274.799,80.4371 274.132,77.2704 273.5,74C 273.833,73.6667 274.167,73.3333 274.5,73C 273.831,59.8393 272.665,46.6726 271,33.5C 267.428,32.0206 265.594,29.3539 265.5,25.5C 259.799,20.7932 253.799,16.2932 247.5,12C 239.294,7.71128 230.794,4.21128 222,1.5C 201.649,1.65682 181.982,1.65682 163,1.5C 162.333,4.16667 161.667,4.16667 161,1.5C 160.085,2.32791 159.419,3.32791 159,4.5C 158.667,3.83333 158.333,3.16667 158,2.5C 156.355,2.69317 154.521,2.85983 152.5,3C 155.033,5.32099 154.699,7.32099 151.5,9C 153.421,10.0309 153.421,11.5309 151.5,13.5C 148.361,14.392 146.028,16.2254 144.5,19C 143.551,19.6172 142.718,19.4506 142,18.5C 141.641,21.5443 140.974,21.8776 140,19.5C 138.921,21.3937 137.587,21.727 136,20.5C 134.56,22.0456 132.727,22.879 130.5,23C 131.711,23.8928 131.711,24.7261 130.5,25.5C 129.033,25.277 127.533,24.9437 126,24.5C 125.5,25 125,25.5 124.5,26C 126.058,26.21 127.391,26.71 128.5,27.5C 124.5,27.5 120.5,27.5 116.5,27.5C 106.494,27.6665 96.4944,27.4998 86.5,27C 89.011,24.157 91.8443,21.657 95,19.5C 97.1841,20.1081 99.1841,19.4414 101,17.5C 101.914,18.6537 102.747,18.487 103.5,17C 102.751,15.2663 102.251,13.433 102,11.5C 101.667,11.8333 101.333,12.1667 101,12.5C 98.8316,10.5455 96.4983,9.8788 94,10.5C 93.6827,8.69923 93.016,8.36589 92,9.5C 90.3333,8.83333 88.6667,8.16667 87,7.5C 86.0186,10.6545 84.6852,10.9878 83,8.5C 71.0702,8.09084 60.4036,12.0908 51,20.5C 46.7275,28.1092 48.8942,33.1092 57.5,35.5C 59.3957,34.3606 60.3957,35.0272 60.5,37.5C 57.2473,41.0001 54.7473,45.0001 53,49.5C 52.5,74.4978 52.3334,99.4978 52.5,124.5C 51.5206,121.375 51.1872,118.042 51.5,114.5C 51.6666,94.1639 51.5,73.8306 51,53.5C 49.8739,50.2301 49.7072,47.3968 50.5,45C 48.5328,41.0951 46.1995,37.4284 43.5,34C 42.1392,25.028 45.8059,18.1947 54.5,13.5C 55.1799,12.1401 55.8466,10.8068 56.5,9.5C 59.7734,6.85581 63.4401,4.68914 67.5,3C 71.7085,2.1194 75.7085,0.952732 79.5,-0.5 Z"/></g>
<g><path style="opacity:1" fill="#21a8f7" d="M 275.5,83.5 C 275.667,99.1702 275.5,114.837 275,130.5C 274.5,130 274,129.5 273.5,129C 273.31,121.144 273.31,113.477 273.5,106C 272.833,104 272.167,102 271.5,100C 271.688,85.6365 272.021,71.3032 272.5,57C 271.138,52.4046 270.138,47.7379 269.5,43C 270.354,41.119 270.021,39.2857 268.5,37.5C 263.5,32.6285 258.666,28.2952 254,24.5C 248.712,21.6348 242.878,18.9681 236.5,16.5C 231.648,8.63012 226.982,8.63012 222.5,16.5C 220.862,17.1589 219.195,17.8256 217.5,18.5C 216.828,17.0508 216.161,15.7175 215.5,14.5C 213.752,9.81829 210.419,8.31829 205.5,10C 203.253,11.995 202.253,14.495 202.5,17.5C 201.964,19.9667 201.464,22.3 201,24.5C 200.667,23.5 200.333,22.5 200,21.5C 199.71,23.0441 199.044,24.3774 198,25.5C 197.026,23.1224 196.359,23.4557 196,26.5C 195.333,23.8333 194.667,23.8333 194,26.5C 192.244,25.015 191.077,25.3484 190.5,27.5C 169.833,27.5 149.167,27.5 128.5,27.5C 127.391,26.71 126.058,26.21 124.5,26C 125,25.5 125.5,25 126,24.5C 127.533,24.9437 129.033,25.277 130.5,25.5C 131.711,24.7261 131.711,23.8928 130.5,23C 132.727,22.879 134.56,22.0456 136,20.5C 137.587,21.727 138.921,21.3937 140,19.5C 140.974,21.8776 141.641,21.5443 142,18.5C 142.718,19.4506 143.551,19.6172 144.5,19C 146.028,16.2254 148.361,14.392 151.5,13.5C 153.421,11.5309 153.421,10.0309 151.5,9C 154.699,7.32099 155.033,5.32099 152.5,3C 154.521,2.85983 156.355,2.69317 158,2.5C 158.333,3.16667 158.667,3.83333 159,4.5C 159.419,3.32791 160.085,2.32791 161,1.5C 161.667,4.16667 162.333,4.16667 163,1.5C 181.982,1.65682 201.649,1.65682 222,1.5C 230.794,4.21128 239.294,7.71128 247.5,12C 253.799,16.2932 259.799,20.7932 265.5,25.5C 265.594,29.3539 267.428,32.0206 271,33.5C 272.665,46.6726 273.831,59.8393 274.5,73C 274.167,73.3333 273.833,73.6667 273.5,74C 274.132,77.2704 274.799,80.4371 275.5,83.5 Z"/></g>
<g><path style="opacity:1" fill="#79c1fe" d="M 116.5,27.5 C 105.007,28.3307 93.3405,28.8307 81.5,29C 74.0053,30.752 67.0053,33.5853 60.5,37.5C 60.3957,35.0272 59.3957,34.3606 57.5,35.5C 48.8942,33.1092 46.7275,28.1092 51,20.5C 60.4036,12.0908 71.0702,8.09084 83,8.5C 84.6852,10.9878 86.0186,10.6545 87,7.5C 88.6667,8.16667 90.3333,8.83333 92,9.5C 93.016,8.36589 93.6827,8.69923 94,10.5C 96.4983,9.8788 98.8316,10.5455 101,12.5C 101.333,12.1667 101.667,11.8333 102,11.5C 102.251,13.433 102.751,15.2663 103.5,17C 102.747,18.487 101.914,18.6537 101,17.5C 99.1841,19.4414 97.1841,20.1081 95,19.5C 91.8443,21.657 89.011,24.157 86.5,27C 96.4944,27.4998 106.494,27.6665 116.5,27.5 Z"/></g>
<g><path style="opacity:1" fill="#dedb32" d="M 236.5,16.5 C 236.396,18.7028 235.73,20.7028 234.5,22.5C 228.019,25.217 224.019,23.217 222.5,16.5C 226.982,8.63012 231.648,8.63012 236.5,16.5 Z"/></g>
<g><path style="opacity:1" fill="#f82033" d="M 215.5,14.5 C 216.363,18.1616 215.03,20.3282 211.5,21C 207.392,22.3351 204.392,21.1684 202.5,17.5C 202.253,14.495 203.253,11.995 205.5,10C 210.419,8.31829 213.752,9.81829 215.5,14.5 Z"/></g>
<g><path style="opacity:1" fill="#3d5473" d="M 243.5,1.5 C 254.441,4.63215 263.775,10.2988 271.5,18.5C 273.796,23.697 275.463,29.0303 276.5,34.5C 276.167,34.5 275.833,34.5 275.5,34.5C 275.672,33.5084 275.338,32.8417 274.5,32.5C 272.937,24.608 268.937,18.2747 262.5,13.5C 256.588,8.76117 250.255,4.76117 243.5,1.5 Z"/></g>
<g><path style="opacity:1" fill="#b3dbfd" d="M 262.5,13.5 C 268.937,18.2747 272.937,24.608 274.5,32.5C 270.105,26.2525 265.438,20.0858 260.5,14C 261.094,13.5357 261.761,13.369 262.5,13.5 Z"/></g>
<g><path style="opacity:1" fill="#198fdd" d="M 215.5,14.5 C 216.161,15.7175 216.828,17.0508 217.5,18.5C 219.195,17.8256 220.862,17.1589 222.5,16.5C 224.019,23.217 228.019,25.217 234.5,22.5C 237.596,20.8232 240.429,21.4899 243,24.5C 243.718,23.5494 244.551,23.3828 245.5,24C 247.744,24.9961 249.577,26.4961 251,28.5C 252.333,28.5 253.667,28.5 255,28.5C 256.487,29.2529 256.654,30.0862 255.5,31C 256.793,31.49 258.127,31.6567 259.5,31.5C 258.826,35.3169 260.159,38.1503 263.5,40C 261.109,41.3086 261.109,42.3086 263.5,43C 263.167,45.3333 262.833,47.6667 262.5,50C 263.167,50.3333 263.833,50.6667 264.5,51C 263.521,52.7785 263.854,54.4452 265.5,56C 264.826,57.7506 264.493,59.4173 264.5,61C 265.446,67.9138 266.446,74.5805 267.5,81C 266.655,83.6805 266.988,86.3472 268.5,89C 268.167,90 267.833,91 267.5,92C 268.167,94.3333 268.833,96.6667 269.5,99C 269.167,100 268.833,101 268.5,102C 269.167,104.333 269.833,106.667 270.5,109C 270.167,109.333 269.833,109.667 269.5,110C 270.271,117.492 271.271,124.992 272.5,132.5C 273.833,132.5 275.167,132.5 276.5,132.5C 276.768,134.099 276.434,135.432 275.5,136.5C 270.167,135.167 264.833,133.833 259.5,132.5C 259.5,132.167 259.5,131.833 259.5,131.5C 260.664,104.336 260.83,77.0031 260,49.5C 256.197,40.0092 249.364,33.8426 239.5,31C 234.9,29.6833 230.234,28.6833 225.5,28C 213.838,27.5001 202.171,27.3335 190.5,27.5C 191.077,25.3484 192.244,25.015 194,26.5C 194.667,23.8333 195.333,23.8333 196,26.5C 196.359,23.4557 197.026,23.1224 198,25.5C 199.044,24.3774 199.71,23.0441 200,21.5C 200.333,22.5 200.667,23.5 201,24.5C 201.464,22.3 201.964,19.9667 202.5,17.5C 204.392,21.1684 207.392,22.3351 211.5,21C 215.03,20.3282 216.363,18.1616 215.5,14.5 Z"/></g>
<g><path style="opacity:1" fill="#1aa6f5" d="M 56.5,9.5 C 55.8466,10.8068 55.1799,12.1401 54.5,13.5C 45.8059,18.1947 42.1392,25.028 43.5,34C 46.1995,37.4284 48.5328,41.0951 50.5,45C 49.7072,47.3968 49.8739,50.2301 51,53.5C 51.5,73.8306 51.6666,94.1639 51.5,114.5C 49.732,112.078 48.232,109.412 47,106.5C 46.0975,105.299 44.9308,104.465 43.5,104C 44.1667,103.667 44.8333,103.333 45.5,103C 44.1667,101.667 44.1667,100.333 45.5,99C 44.1198,97.6764 43.7865,96.3431 44.5,95C 43.1667,93.3333 41.8333,91.6667 40.5,90C 43.1667,89.3333 43.1667,88.6667 40.5,88C 43.1667,86.6667 43.1667,85.3333 40.5,84C 40.8333,83.6667 41.1667,83.3333 41.5,83C 40.7511,81.2663 40.2511,79.433 40,77.5C 38.7924,62.1904 38.2924,46.8571 38.5,31.5C 38.9402,28.6202 39.9402,25.9535 41.5,23.5C 44.9573,17.2558 49.9573,12.5892 56.5,9.5 Z"/></g>
<g><path style="opacity:1" fill="#fdfdfd" d="M 116.5,27.5 C 120.5,27.5 124.5,27.5 128.5,27.5C 149.167,27.5 169.833,27.5 190.5,27.5C 202.171,27.3335 213.838,27.5001 225.5,28C 230.234,28.6833 234.9,29.6833 239.5,31C 249.364,33.8426 256.197,40.0092 260,49.5C 260.83,77.0031 260.664,104.336 259.5,131.5C 256.013,130.176 253.679,127.676 252.5,124C 252.806,120.342 253.139,117.008 253.5,114C 252.833,113.333 252.167,112.667 251.5,112C 252.238,110.176 252.572,108.176 252.5,106C 251.939,104.324 250.939,102.991 249.5,102C 252.167,101.333 252.167,100.667 249.5,100C 250.167,99.6667 250.833,99.3333 251.5,99C 249.821,96.0278 249.488,93.3612 250.5,91C 248.665,90.0723 248.332,88.9056 249.5,87.5C 247.411,85.4055 247.411,83.5721 249.5,82C 248.094,79.5551 246.76,77.0551 245.5,74.5C 248.141,71.5537 247.807,69.887 244.5,69.5C 245.311,66.3363 245.478,63.003 245,59.5C 241.963,55.4771 240.296,56.1438 240,61.5C 237.399,60.2738 236.565,60.9405 237.5,63.5C 237.023,64.4776 236.357,65.3109 235.5,66C 235.833,66.3333 236.167,66.6667 236.5,67C 235.827,69.8587 234.993,72.692 234,75.5C 233.667,74.5 233.333,73.5 233,72.5C 231.981,74.2694 231.814,75.9361 232.5,77.5C 230.957,80.086 229.291,82.586 227.5,85C 228.458,86.1475 228.125,87.1475 226.5,88C 226.957,88.414 227.291,88.914 227.5,89.5C 225.999,92.484 224.999,95.6506 224.5,99C 225.28,100.073 225.113,101.24 224,102.5C 223.333,98.5 222.667,98.5 222,102.5C 221.333,101.167 220.667,101.167 220,102.5C 220.423,104.876 219.589,107.043 217.5,109C 217.833,109.333 218.167,109.667 218.5,110C 217.809,111.067 217.309,112.234 217,113.5C 216.558,111.321 215.558,110.655 214,111.5C 213.71,113.952 213.044,116.285 212,118.5C 211.333,117.167 210.667,117.167 210,118.5C 209.667,120.833 209.333,123.167 209,125.5C 208.581,124.328 207.915,123.328 207,122.5C 205.748,124.001 204.748,125.668 204,127.5C 203,127.167 202,126.833 201,126.5C 199.981,127.687 198.814,128.687 197.5,129.5C 196.808,128.975 196.308,128.308 196,127.5C 194.654,130.249 193.32,130.583 192,128.5C 191.16,131.464 190.16,131.797 189,129.5C 187.607,133.476 185.44,134.309 182.5,132C 181.809,133.067 181.309,134.234 181,135.5C 180.581,134.328 179.915,133.328 179,132.5C 176.986,136.597 174.986,136.93 173,133.5C 172.085,134.328 171.419,135.328 171,136.5C 170.333,133.833 169.667,133.833 169,136.5C 167.57,136.694 166.07,136.694 164.5,136.5C 163.459,138.991 162.626,138.991 162,136.5C 161.333,139.167 160.667,139.167 160,136.5C 159.333,139.167 158.667,139.167 158,136.5C 157.717,139.742 156.883,140.076 155.5,137.5C 154.201,138.09 153.368,139.09 153,140.5C 152.085,139.672 151.419,138.672 151,137.5C 150.692,138.308 150.192,138.975 149.5,139.5C 147.93,139.306 146.43,139.306 145,139.5C 144.333,142.167 143.667,142.167 143,139.5C 142.667,140.167 142.333,140.833 142,141.5C 139.667,141.167 137.333,140.833 135,140.5C 134.333,141.167 133.667,141.833 133,142.5C 131.467,142.056 129.967,141.723 128.5,141.5C 127.459,143.991 126.626,143.991 126,141.5C 125.333,142.167 124.667,142.833 124,143.5C 122.602,142.949 121.268,142.616 120,142.5C 119.333,145.167 118.667,145.167 118,142.5C 117.333,143.167 116.667,143.833 116,144.5C 113.189,144.614 110.522,144.281 108,143.5C 107.333,144.167 106.667,144.833 106,145.5C 102.333,145.167 98.6667,144.833 95,144.5C 89.5041,146.004 84.0041,146.67 78.5,146.5C 77.5224,146.023 76.6891,145.357 76,144.5C 74.4667,144.944 72.9667,145.277 71.5,145.5C 67.0446,144.104 62.7113,142.437 58.5,140.5C 57.8333,140.167 57.1667,139.833 56.5,139.5C 53.5421,134.956 52.2088,129.956 52.5,124.5C 52.3334,99.4978 52.5,74.4978 53,49.5C 54.7473,45.0001 57.2473,41.0001 60.5,37.5C 67.0053,33.5853 74.0053,30.752 81.5,29C 93.3405,28.8307 105.007,28.3307 116.5,27.5 Z"/></g>
<g><path style="opacity:1" fill="#1598e6" d="M 236.5,16.5 C 242.878,18.9681 248.712,21.6348 254,24.5C 258.666,28.2952 263.5,32.6285 268.5,37.5C 270.021,39.2857 270.354,41.119 269.5,43C 270.138,47.7379 271.138,52.4046 272.5,57C 272.021,71.3032 271.688,85.6365 271.5,100C 272.167,102 272.833,104 273.5,106C 273.31,113.477 273.31,121.144 273.5,129C 274,129.5 274.5,130 275,130.5C 275.5,114.837 275.667,99.1702 275.5,83.5C 275.5,67.1667 275.5,50.8333 275.5,34.5C 275.833,34.5 276.167,34.5 276.5,34.5C 276.5,67.1667 276.5,99.8333 276.5,132.5C 275.167,132.5 273.833,132.5 272.5,132.5C 271.271,124.992 270.271,117.492 269.5,110C 269.833,109.667 270.167,109.333 270.5,109C 269.833,106.667 269.167,104.333 268.5,102C 268.833,101 269.167,100 269.5,99C 268.833,96.6667 268.167,94.3333 267.5,92C 267.833,91 268.167,90 268.5,89C 266.988,86.3472 266.655,83.6805 267.5,81C 266.446,74.5805 265.446,67.9138 264.5,61C 264.493,59.4173 264.826,57.7506 265.5,56C 263.854,54.4452 263.521,52.7785 264.5,51C 263.833,50.6667 263.167,50.3333 262.5,50C 262.833,47.6667 263.167,45.3333 263.5,43C 261.109,42.3086 261.109,41.3086 263.5,40C 260.159,38.1503 258.826,35.3169 259.5,31.5C 258.127,31.6567 256.793,31.49 255.5,31C 256.654,30.0862 256.487,29.2529 255,28.5C 253.667,28.5 252.333,28.5 251,28.5C 249.577,26.4961 247.744,24.9961 245.5,24C 244.551,23.3828 243.718,23.5494 243,24.5C 240.429,21.4899 237.596,20.8232 234.5,22.5C 235.73,20.7028 236.396,18.7028 236.5,16.5 Z"/></g>
<g><path style="opacity:1" fill="#fef959" d="M 121.5,45.5 C 130.222,44.906 137.722,47.5727 144,53.5C 144.667,55.5 144.667,57.5 144,59.5C 143.107,60.0814 142.107,60.4148 141,60.5C 137.269,59.1003 133.769,57.267 130.5,55C 127.833,54.3333 125.167,54.3333 122.5,55C 110.658,63.5319 106.158,75.0319 109,89.5C 112.402,99.4521 119.235,102.952 129.5,100C 132.833,98 135.5,95.3333 137.5,92C 142.496,91.3357 144.33,93.5023 143,98.5C 135.617,108.927 125.784,112.094 113.5,108C 103.31,101.62 98.6429,92.2865 99.5,80C 100.2,64.0645 107.534,52.5645 121.5,45.5 Z"/></g>
<g><path style="opacity:1" fill="#151517" d="M 121.5,60.5 C 128.9,61.059 133.4,65.059 135,72.5C 136.718,80.8836 134.551,88.0503 128.5,94C 124.612,96.2225 121.112,95.7225 118,92.5C 111.063,80.8002 112.229,70.1335 121.5,60.5 Z"/></g>
<g><path style="opacity:1" fill="#141416" d="M 194.5,61.5 C 199.814,60.7397 203.647,62.7397 206,67.5C 209.84,76.2553 209.173,84.5887 204,92.5C 198.967,96.7793 194.3,96.4459 190,91.5C 185.381,82.8061 185.381,74.1395 190,65.5C 191.397,63.9297 192.897,62.5964 194.5,61.5 Z"/></g>
<g><path style="opacity:1" fill="#1598e6" d="M 38.5,31.5 C 38.2924,46.8571 38.7924,62.1904 40,77.5C 40.2511,79.433 40.7511,81.2663 41.5,83C 41.1667,83.3333 40.8333,83.6667 40.5,84C 43.1667,85.3333 43.1667,86.6667 40.5,88C 43.1667,88.6667 43.1667,89.3333 40.5,90C 41.8333,91.6667 43.1667,93.3333 44.5,95C 43.7865,96.3431 44.1198,97.6764 45.5,99C 44.1667,100.333 44.1667,101.667 45.5,103C 44.8333,103.333 44.1667,103.667 43.5,104C 44.9308,104.465 46.0975,105.299 47,106.5C 48.232,109.412 49.732,112.078 51.5,114.5C 51.1872,118.042 51.5206,121.375 52.5,124.5C 52.2088,129.956 53.5421,134.956 56.5,139.5C 55.7784,139.918 55.2784,140.584 55,141.5C 54.3333,138.833 53.6667,138.833 53,141.5C 52,138.833 51,138.833 50,141.5C 48.6646,139.395 46.9979,138.729 45,139.5C 44.0644,137.292 42.3977,135.958 40,135.5C 39.0266,133.608 38.3599,131.608 38,129.5C 37.8323,102.33 37.3323,75.3302 36.5,48.5C 36.1282,42.57 36.7949,36.9033 38.5,31.5 Z"/></g>
<g><path style="opacity:1" fill="#f8f9f8" d="M 259.5,131.5 C 259.5,131.833 259.5,132.167 259.5,132.5C 259.5,133.167 259.167,133.5 258.5,133.5C 255.523,132.929 252.69,131.929 250,130.5C 249.333,131.833 248.667,131.833 248,130.5C 247.333,133.167 246.667,133.167 246,130.5C 245.333,133.167 244.667,133.167 244,130.5C 242.418,131.96 241.085,133.627 240,135.5C 239.667,135.167 239.333,134.833 239,134.5C 236.985,136.917 234.985,138.584 233,139.5C 232.667,138.833 232.333,138.167 232,137.5C 230.988,139.864 229.655,141.198 228,141.5C 227.333,138.833 226.667,138.833 226,141.5C 225.667,140.833 225.333,140.167 225,139.5C 224.333,140.833 223.667,142.167 223,143.5C 222.667,142.833 222.333,142.167 222,141.5C 219.96,145.446 217.96,145.446 216,141.5C 215.333,145.5 214.667,145.5 214,141.5C 213.633,145.281 212.3,145.948 210,143.5C 209.333,146.167 208.667,146.167 208,143.5C 207.333,146.167 206.667,146.167 206,143.5C 205.333,146.167 204.667,146.167 204,143.5C 203.667,144.167 203.333,144.833 203,145.5C 202.259,144.359 201.425,144.359 200.5,145.5C 199.808,144.975 199.308,144.308 199,143.5C 198.692,144.308 198.192,144.975 197.5,145.5C 196.284,144.998 195.117,144.665 194,144.5C 193.333,147.167 192.667,147.167 192,144.5C 191.333,147.167 190.667,147.167 190,144.5C 189.667,145.167 189.333,145.833 189,146.5C 186.368,146.707 184.035,146.374 182,145.5C 180.667,148.167 179.333,148.167 178,145.5C 177.333,148.167 176.667,148.167 176,145.5C 175.333,148.167 174.667,148.167 174,145.5C 173.667,146.167 173.333,146.833 173,147.5C 171.467,147.056 169.967,146.723 168.5,146.5C 167.459,148.991 166.626,148.991 166,146.5C 164.434,145.939 163.101,146.606 162,148.5C 160,148.5 158,148.5 156,148.5C 155.333,145.833 154.667,145.833 154,148.5C 149.026,148.116 144.026,147.783 139,147.5C 134.667,148.167 130.333,148.833 126,149.5C 108.948,149.608 90.7816,149.274 71.5,148.5C 66.1305,147.454 61.7972,144.787 58.5,140.5C 62.7113,142.437 67.0446,144.104 71.5,145.5C 72.9667,145.277 74.4667,144.944 76,144.5C 76.6891,145.357 77.5224,146.023 78.5,146.5C 84.0041,146.67 89.5041,146.004 95,144.5C 98.6667,144.833 102.333,145.167 106,145.5C 106.667,144.833 107.333,144.167 108,143.5C 110.522,144.281 113.189,144.614 116,144.5C 116.667,143.833 117.333,143.167 118,142.5C 118.667,145.167 119.333,145.167 120,142.5C 121.268,142.616 122.602,142.949 124,143.5C 124.667,142.833 125.333,142.167 126,141.5C 126.626,143.991 127.459,143.991 128.5,141.5C 129.967,141.723 131.467,142.056 133,142.5C 133.667,141.833 134.333,141.167 135,140.5C 137.333,140.833 139.667,141.167 142,141.5C 142.333,140.833 142.667,140.167 143,139.5C 143.667,142.167 144.333,142.167 145,139.5C 146.43,139.306 147.93,139.306 149.5,139.5C 150.192,138.975 150.692,138.308 151,137.5C 151.419,138.672 152.085,139.672 153,140.5C 153.368,139.09 154.201,138.09 155.5,137.5C 156.883,140.076 157.717,139.742 158,136.5C 158.667,139.167 159.333,139.167 160,136.5C 160.667,139.167 161.333,139.167 162,136.5C 162.626,138.991 163.459,138.991 164.5,136.5C 166.07,136.694 167.57,136.694 169,136.5C 169.667,133.833 170.333,133.833 171,136.5C 171.419,135.328 172.085,134.328 173,133.5C 174.986,136.93 176.986,136.597 179,132.5C 179.915,133.328 180.581,134.328 181,135.5C 181.309,134.234 181.809,133.067 182.5,132C 185.44,134.309 187.607,133.476 189,129.5C 190.16,131.797 191.16,131.464 192,128.5C 193.32,130.583 194.654,130.249 196,127.5C 196.308,128.308 196.808,128.975 197.5,129.5C 198.814,128.687 199.981,127.687 201,126.5C 202,126.833 203,127.167 204,127.5C 204.748,125.668 205.748,124.001 207,122.5C 207.915,123.328 208.581,124.328 209,125.5C 209.333,123.167 209.667,120.833 210,118.5C 210.667,117.167 211.333,117.167 212,118.5C 213.044,116.285 213.71,113.952 214,111.5C 215.558,110.655 216.558,111.321 217,113.5C 217.309,112.234 217.809,111.067 218.5,110C 218.167,109.667 217.833,109.333 217.5,109C 219.589,107.043 220.423,104.876 220,102.5C 220.667,101.167 221.333,101.167 222,102.5C 222.667,98.5 223.333,98.5 224,102.5C 225.113,101.24 225.28,100.073 224.5,99C 224.999,95.6506 225.999,92.484 227.5,89.5C 227.291,88.914 226.957,88.414 226.5,88C 228.125,87.1475 228.458,86.1475 227.5,85C 229.291,82.586 230.957,80.086 232.5,77.5C 231.814,75.9361 231.981,74.2694 233,72.5C 233.333,73.5 233.667,74.5 234,75.5C 234.993,72.692 235.827,69.8587 236.5,67C 236.167,66.6667 235.833,66.3333 235.5,66C 236.357,65.3109 237.023,64.4776 237.5,63.5C 236.565,60.9405 237.399,60.2738 240,61.5C 240.296,56.1438 241.963,55.4771 245,59.5C 245.478,63.003 245.311,66.3363 244.5,69.5C 247.807,69.887 248.141,71.5537 245.5,74.5C 246.76,77.0551 248.094,79.5551 249.5,82C 247.411,83.5721 247.411,85.4055 249.5,87.5C 248.332,88.9056 248.665,90.0723 250.5,91C 249.488,93.3612 249.821,96.0278 251.5,99C 250.833,99.3333 250.167,99.6667 249.5,100C 252.167,100.667 252.167,101.333 249.5,102C 250.939,102.991 251.939,104.324 252.5,106C 252.572,108.176 252.238,110.176 251.5,112C 252.167,112.667 252.833,113.333 253.5,114C 253.139,117.008 252.806,120.342 252.5,124C 253.679,127.676 256.013,130.176 259.5,131.5 Z"/></g>
<g><path style="opacity:1" fill="#eceded" d="M 119.5,73.5 C 122.94,74.4486 124.274,76.7819 123.5,80.5C 124.131,83.8715 122.964,86.2049 120,87.5C 115.532,83.0124 115.366,78.3458 119.5,73.5 Z"/></g>
<g><path style="opacity:1" fill="#ebecec" d="M 191.5,74.5 C 193.39,74.2965 194.89,74.9632 196,76.5C 196.667,79.5 196.667,82.5 196,85.5C 194.857,88.9153 193.19,89.2486 191,86.5C 188.862,82.3562 189.029,78.3562 191.5,74.5 Z"/></g>
<g><path style="opacity:1" fill="#111212" d="M 144.5,111.5 C 145.675,111.281 146.675,111.614 147.5,112.5C 151.489,117.821 155.822,122.821 160.5,127.5C 165.323,122.508 169.99,117.342 174.5,112C 176.237,111.388 177.237,112.054 177.5,114C 173.034,121.627 167.367,128.127 160.5,133.5C 154.194,128.355 148.694,122.355 144,115.5C 143.421,114.072 143.588,112.738 144.5,111.5 Z"/></g>
<g><path style="opacity:1" fill="#e9e9e9" d="M 258.5,133.5 C 258.25,135.674 257.25,137.341 255.5,138.5C 244.485,146.726 232.152,151.393 218.5,152.5C 175.167,152.5 131.833,152.5 88.5,152.5C 85.4824,152.296 82.4824,151.963 79.5,151.5C 76.8333,150.5 74.1667,149.5 71.5,148.5C 90.7816,149.274 108.948,149.608 126,149.5C 130.333,148.833 134.667,148.167 139,147.5C 144.026,147.783 149.026,148.116 154,148.5C 154.667,145.833 155.333,145.833 156,148.5C 158,148.5 160,148.5 162,148.5C 163.101,146.606 164.434,145.939 166,146.5C 166.626,148.991 167.459,148.991 168.5,146.5C 169.967,146.723 171.467,147.056 173,147.5C 173.333,146.833 173.667,146.167 174,145.5C 174.667,148.167 175.333,148.167 176,145.5C 176.667,148.167 177.333,148.167 178,145.5C 179.333,148.167 180.667,148.167 182,145.5C 184.035,146.374 186.368,146.707 189,146.5C 189.333,145.833 189.667,145.167 190,144.5C 190.667,147.167 191.333,147.167 192,144.5C 192.667,147.167 193.333,147.167 194,144.5C 195.117,144.665 196.284,144.998 197.5,145.5C 198.192,144.975 198.692,144.308 199,143.5C 199.308,144.308 199.808,144.975 200.5,145.5C 201.425,144.359 202.259,144.359 203,145.5C 203.333,144.833 203.667,144.167 204,143.5C 204.667,146.167 205.333,146.167 206,143.5C 206.667,146.167 207.333,146.167 208,143.5C 208.667,146.167 209.333,146.167 210,143.5C 212.3,145.948 213.633,145.281 214,141.5C 214.667,145.5 215.333,145.5 216,141.5C 217.96,145.446 219.96,145.446 222,141.5C 222.333,142.167 222.667,142.833 223,143.5C 223.667,142.167 224.333,140.833 225,139.5C 225.333,140.167 225.667,140.833 226,141.5C 226.667,138.833 227.333,138.833 228,141.5C 229.655,141.198 230.988,139.864 232,137.5C 232.333,138.167 232.667,138.833 233,139.5C 234.985,138.584 236.985,136.917 239,134.5C 239.333,134.833 239.667,135.167 240,135.5C 241.085,133.627 242.418,131.96 244,130.5C 244.667,133.167 245.333,133.167 246,130.5C 246.667,133.167 247.333,133.167 248,130.5C 248.667,131.833 249.333,131.833 250,130.5C 252.69,131.929 255.523,132.929 258.5,133.5 Z"/></g>
<g><path style="opacity:1" fill="#1781cd" d="M 36.5,48.5 C 37.3323,75.3302 37.8323,102.33 38,129.5C 38.3599,131.608 39.0266,133.608 40,135.5C 42.3977,135.958 44.0644,137.292 45,139.5C 46.9979,138.729 48.6646,139.395 50,141.5C 51,138.833 52,138.833 53,141.5C 53.6667,138.833 54.3333,138.833 55,141.5C 55.2784,140.584 55.7784,139.918 56.5,139.5C 57.1667,139.833 57.8333,140.167 58.5,140.5C 61.7972,144.787 66.1305,147.454 71.5,148.5C 74.1667,149.5 76.8333,150.5 79.5,151.5C 78.5416,151.953 77.7083,152.619 77,153.5C 75.6667,152.167 74.3333,152.167 73,153.5C 72.6667,152.833 72.3333,152.167 72,151.5C 70.6667,152.167 69.3333,152.833 68,153.5C 66.4748,153.112 64.8082,153.112 63,153.5C 61.4452,151.854 59.7785,151.521 58,152.5C 56.9207,150.606 55.5874,150.273 54,151.5C 52.8989,149.606 51.5655,148.939 50,149.5C 47.0761,148.266 44.4095,146.599 42,144.5C 41.1555,140.771 39.6555,137.437 37.5,134.5C 36.502,106.005 36.1687,77.3382 36.5,48.5 Z"/></g>
<g><path style="opacity:1" fill="#737a82" d="M 255.5,138.5 C 254.04,140.463 252.373,142.296 250.5,144C 240.855,150.564 230.188,153.398 218.5,152.5C 232.152,151.393 244.485,146.726 255.5,138.5 Z"/></g>
<g><path style="opacity:0.215" fill="#080b0f" d="M 271.5,18.5 C 275.937,22.4624 278.437,27.4624 279,33.5C 279.667,69.5 279.667,105.5 279,141.5C 273.729,155.443 264.229,165.61 250.5,172C 245.212,173.874 239.879,175.541 234.5,177C 235.056,177.383 235.389,177.883 235.5,178.5C 224.516,176.74 213.516,175.074 202.5,173.5C 208.938,171.85 215.605,170.85 222.5,170.5C 239.978,170.352 254.644,164.018 266.5,151.5C 268.86,150.135 270.527,148.135 271.5,145.5C 273.974,143.102 275.308,140.102 275.5,136.5C 276.434,135.432 276.768,134.099 276.5,132.5C 276.5,99.8333 276.5,67.1667 276.5,34.5C 275.463,29.0303 273.796,23.697 271.5,18.5 Z"/></g>
<g><path style="opacity:0.215" fill="#080b0f" d="M 41.5,23.5 C 39.9402,25.9535 38.9402,28.6202 38.5,31.5C 36.7949,36.9033 36.1282,42.57 36.5,48.5C 36.1687,77.3382 36.502,106.005 37.5,134.5C 37.9742,140.643 40.3075,145.976 44.5,150.5C 50.6667,157.753 58.3333,162.753 67.5,165.5C 71.8578,167.597 76.5245,169.097 81.5,170C 94.1821,170.644 106.515,171.81 118.5,173.5C 107.44,174.843 96.4404,176.51 85.5,178.5C 73.2139,176.158 61.8806,171.991 51.5,166C 42.7736,159.212 36.7736,150.545 33.5,140C 33.3486,106.706 33.5153,73.2063 34,39.5C 35.0867,36.4355 35.7534,33.4355 36,30.5C 37.391,27.6639 39.2243,25.3306 41.5,23.5 Z"/></g>
<g><path style="opacity:1" fill="#096ec0" d="M 37.5,134.5 C 39.6555,137.437 41.1555,140.771 42,144.5C 44.4095,146.599 47.0761,148.266 50,149.5C 51.5655,148.939 52.8989,149.606 54,151.5C 55.5874,150.273 56.9207,150.606 58,152.5C 59.7785,151.521 61.4452,151.854 63,153.5C 64.8082,153.112 66.4748,153.112 68,153.5C 69.3333,152.833 70.6667,152.167 72,151.5C 72.3333,152.167 72.6667,152.833 73,153.5C 74.3333,152.167 75.6667,152.167 77,153.5C 77.7083,152.619 78.5416,151.953 79.5,151.5C 82.4824,151.963 85.4824,152.296 88.5,152.5C 126.664,153.333 164.998,153.833 203.5,154C 203,154.5 202.5,155 202,155.5C 199.452,155.534 196.785,155.201 194,154.5C 192.333,155.167 190.667,155.833 189,156.5C 187.111,155.911 185.111,155.577 183,155.5C 182.333,156.167 181.667,156.833 181,157.5C 178.733,156.499 176.233,156.166 173.5,156.5C 172.353,156.818 171.519,157.484 171,158.5C 170.333,155.833 169.667,155.833 169,158.5C 168.333,155.833 167.667,155.833 167,158.5C 160.747,157.675 154.08,157.675 147,158.5C 145.667,161.167 144.333,161.167 143,158.5C 142.259,159.641 141.425,159.641 140.5,158.5C 139.808,159.025 139.308,159.692 139,160.5C 123.888,160.963 109.221,160.963 95,160.5C 94.3333,161.167 93.6667,161.833 93,162.5C 89.1933,162.112 85.5267,162.112 82,162.5C 74.8542,161.859 67.6876,160.692 60.5,159C 57.3394,157.007 54.0061,155.507 50.5,154.5C 49.0499,152.39 47.0499,151.057 44.5,150.5C 40.3075,145.976 37.9742,140.643 37.5,134.5 Z"/></g>
<g><path style="opacity:1" fill="#1161ac" d="M 259.5,132.5 C 264.833,133.833 270.167,135.167 275.5,136.5C 275.308,140.102 273.974,143.102 271.5,145.5C 262.873,145.096 255.54,147.929 249.5,154C 239.292,159.427 228.458,162.927 217,164.5C 216,164.167 215,163.833 214,163.5C 200.901,164.301 187.734,164.968 174.5,165.5C 144.954,165.417 115.454,165.417 86,165.5C 72.9598,165.125 61.1265,161.458 50.5,154.5C 54.0061,155.507 57.3394,157.007 60.5,159C 67.6876,160.692 74.8542,161.859 82,162.5C 85.5267,162.112 89.1933,162.112 93,162.5C 93.6667,161.833 94.3333,161.167 95,160.5C 109.221,160.963 123.888,160.963 139,160.5C 139.308,159.692 139.808,159.025 140.5,158.5C 141.425,159.641 142.259,159.641 143,158.5C 144.333,161.167 145.667,161.167 147,158.5C 154.08,157.675 160.747,157.675 167,158.5C 167.667,155.833 168.333,155.833 169,158.5C 169.667,155.833 170.333,155.833 171,158.5C 171.519,157.484 172.353,156.818 173.5,156.5C 176.233,156.166 178.733,156.499 181,157.5C 181.667,156.833 182.333,156.167 183,155.5C 185.111,155.577 187.111,155.911 189,156.5C 190.667,155.833 192.333,155.167 194,154.5C 196.785,155.201 199.452,155.534 202,155.5C 202.5,155 203,154.5 203.5,154C 164.998,153.833 126.664,153.333 88.5,152.5C 131.833,152.5 175.167,152.5 218.5,152.5C 230.188,153.398 240.855,150.564 250.5,144C 252.373,142.296 254.04,140.463 255.5,138.5C 257.25,137.341 258.25,135.674 258.5,133.5C 259.167,133.5 259.5,133.167 259.5,132.5 Z"/></g>
<g><path style="opacity:1" fill="#054c91" d="M 271.5,145.5 C 270.527,148.135 268.86,150.135 266.5,151.5C 265.85,151.196 265.183,150.863 264.5,150.5C 258.297,157.514 250.63,162.347 241.5,165C 228.351,168.049 215.017,169.215 201.5,168.5C 198.609,167.597 195.609,167.264 192.5,167.5C 175.241,167.043 159.074,166.71 144,166.5C 137.333,167.167 130.667,167.833 124,168.5C 114.728,167.277 105.395,167.277 96,168.5C 86.3917,168.016 76.8917,167.016 67.5,165.5C 58.3333,162.753 50.6667,157.753 44.5,150.5C 47.0499,151.057 49.0499,152.39 50.5,154.5C 61.1265,161.458 72.9598,165.125 86,165.5C 115.454,165.417 144.954,165.417 174.5,165.5C 187.734,164.968 200.901,164.301 214,163.5C 215,163.833 216,164.167 217,164.5C 228.458,162.927 239.292,159.427 249.5,154C 255.54,147.929 262.873,145.096 271.5,145.5 Z"/></g>
<g><path style="opacity:1" fill="#0c4073" d="M 67.5,165.5 C 76.8917,167.016 86.3917,168.016 96,168.5C 105.395,167.277 114.728,167.277 124,168.5C 130.667,167.833 137.333,167.167 144,166.5C 159.074,166.71 175.241,167.043 192.5,167.5C 192.5,169.167 192.5,170.833 192.5,172.5C 167.789,172.186 143.122,172.519 118.5,173.5C 106.515,171.81 94.1821,170.644 81.5,170C 76.5245,169.097 71.8578,167.597 67.5,165.5 Z"/></g>
<g><path style="opacity:1" fill="#052e61" d="M 266.5,151.5 C 254.644,164.018 239.978,170.352 222.5,170.5C 215.087,171.128 208.087,170.461 201.5,168.5C 215.017,169.215 228.351,168.049 241.5,165C 250.63,162.347 258.297,157.514 264.5,150.5C 265.183,150.863 265.85,151.196 266.5,151.5 Z"/></g>
<g><path style="opacity:1" fill="#0b213d" d="M 192.5,167.5 C 195.609,167.264 198.609,167.597 201.5,168.5C 208.087,170.461 215.087,171.128 222.5,170.5C 215.605,170.85 208.938,171.85 202.5,173.5C 199.098,173.658 195.764,173.324 192.5,172.5C 192.5,170.833 192.5,169.167 192.5,167.5 Z"/></g>
<g><path style="opacity:1" fill="#158edc" d="M 192.5,172.5 C 195.764,173.324 199.098,173.658 202.5,173.5C 213.516,175.074 224.516,176.74 235.5,178.5C 242.392,178.873 249.058,179.873 255.5,181.5C 253.521,184.146 251.188,186.479 248.5,188.5C 231.55,186.126 214.55,184.126 197.5,182.5C 195.909,181.781 194.409,180.781 193,179.5C 170.515,180.305 147.682,180.805 124.5,181C 106.544,184.065 88.5444,186.899 70.5,189.5C 67.6074,188.605 64.9407,187.271 62.5,185.5C 61.8902,184.609 61.5569,183.609 61.5,182.5C 69.2911,180.688 77.2911,179.354 85.5,178.5C 96.4404,176.51 107.44,174.843 118.5,173.5C 143.122,172.519 167.789,172.186 192.5,172.5 Z"/></g>
<g><path style="opacity:1" fill="#0661ad" d="M 197.5,182.5 C 184.381,182.397 171.547,182.064 159,181.5C 156.861,182.236 154.861,183.236 153,184.5C 151.883,184.335 150.716,184.002 149.5,183.5C 148.749,184.376 148.249,185.376 148,186.5C 146.84,184.203 145.84,184.536 145,187.5C 144.667,187.167 144.333,186.833 144,186.5C 142.488,188.957 141.154,188.957 140,186.5C 137.887,188.271 138.053,189.771 140.5,191C 138.047,191.727 135.714,192.727 133.5,194C 135.595,194.556 135.762,195.056 134,195.5C 133.055,195.095 132.388,194.428 132,193.5C 131.342,195.108 131.842,196.275 133.5,197C 131.699,197.317 131.366,197.984 132.5,199C 130.806,200.728 129.639,200.228 129,197.5C 128.138,199.087 127.471,200.754 127,202.5C 126.431,198.639 125.598,198.639 124.5,202.5C 123.205,203.098 121.872,203.598 120.5,204C 121.654,204.914 121.487,205.747 120,206.5C 119.667,205.833 119.333,205.167 119,204.5C 117.088,206.657 115.421,208.991 114,211.5C 112.705,210.159 112.205,208.826 112.5,207.5C 110.851,210.316 108.684,212.649 106,214.5C 105.055,214.095 104.388,213.428 104,212.5C 103.667,213.833 103.333,215.167 103,216.5C 101.026,213.882 99.1929,214.048 97.5,217C 99.158,217.725 99.658,218.892 99,220.5C 98.6667,219.833 98.3333,219.167 98,218.5C 96.324,219.061 94.9906,220.061 94,221.5C 93.6667,220.833 93.3333,220.167 93,219.5C 92.5291,221.246 91.8624,222.913 91,224.5C 90.6667,223.833 90.3333,223.167 90,222.5C 88.1969,226.335 86.8636,226.669 86,223.5C 85.935,225.883 85.1017,226.55 83.5,225.5C 81.0518,226.803 79.5518,228.803 79,231.5C 78.3333,227.5 77.6667,227.5 77,231.5C 75.2933,230.862 73.46,230.862 71.5,231.5C 70.8561,239.578 69.5228,247.245 67.5,254.5C 67.8333,255.167 68.1667,255.833 68.5,256.5C 68.1543,257.696 67.6543,257.696 67,256.5C 65.3253,254.409 64.8253,252.242 65.5,250C 64.8333,246.667 64.1667,243.333 63.5,240C 63.8333,239.667 64.1667,239.333 64.5,239C 63.2068,221.25 62.5401,203.417 62.5,185.5C 64.9407,187.271 67.6074,188.605 70.5,189.5C 88.5444,186.899 106.544,184.065 124.5,181C 147.682,180.805 170.515,180.305 193,179.5C 194.409,180.781 195.909,181.781 197.5,182.5 Z"/></g>
<g><path style="opacity:1" fill="#085ca6" d="M 197.5,182.5 C 214.55,184.126 231.55,186.126 248.5,188.5C 250.268,192.044 251.102,196.044 251,200.5C 252.21,221.822 253.044,243.155 253.5,264.5C 254.5,264.5 255.5,264.5 256.5,264.5C 256.5,255.833 256.5,247.167 256.5,238.5C 256.833,238.5 257.167,238.5 257.5,238.5C 257.5,247.5 257.5,256.5 257.5,265.5C 256.167,265.5 254.833,265.5 253.5,265.5C 253.784,267.415 253.451,269.081 252.5,270.5C 252.5,268.833 252.5,267.167 252.5,265.5C 249.615,265.806 246.948,265.473 244.5,264.5C 246.5,264.5 248.5,264.5 250.5,264.5C 249.906,240.504 249.406,216.504 249,192.5C 248.751,191.376 248.251,190.376 247.5,189.5C 242.463,190.061 237.297,190.061 232,189.5C 227.851,187.546 223.518,186.213 219,185.5C 214.157,185.46 209.324,185.626 204.5,186C 203.773,187.399 203.273,188.899 203,190.5C 202.576,186.81 201.742,186.643 200.5,190C 201.654,190.914 201.487,191.747 200,192.5C 196.89,191.327 196.723,191.827 199.5,194C 199,194.5 198.5,195 198,195.5C 196.434,196.061 195.101,195.394 194,193.5C 193.529,195.246 192.862,196.913 192,198.5C 191.667,197.833 191.333,197.167 191,196.5C 187.475,198.249 186.975,200.416 189.5,203C 186.802,206.135 183.802,208.135 180.5,209C 180.721,210.799 181.054,212.632 181.5,214.5C 180.687,215.814 179.687,216.981 178.5,218C 179.257,219.512 180.257,220.846 181.5,222C 180.833,222.333 180.167,222.667 179.5,223C 182.365,225.403 182.199,226.236 179,225.5C 178.51,226.793 178.343,228.127 178.5,229.5C 174.259,221.349 170.259,213.015 166.5,204.5C 163.681,207.075 160.681,209.408 157.5,211.5C 155.183,208.683 152.683,206.016 150,203.5C 141.597,221.634 133.764,239.967 126.5,258.5C 105.632,260.36 84.9649,262.694 64.5,265.5C 63.1667,265.5 61.8333,265.5 60.5,265.5C 60.5,255.5 60.5,245.5 60.5,235.5C 60.5,233.167 60.5,230.833 60.5,228.5C 60.5,226.833 60.5,225.167 60.5,223.5C 60.5,220.833 60.5,218.167 60.5,215.5C 57.0556,214.955 55.8889,212.955 57,209.5C 58,210.167 59,210.833 60,211.5C 60.4955,209.527 60.6621,207.527 60.5,205.5C 60.5,198.167 60.5,190.833 60.5,183.5C 60.5,182.833 60.8333,182.5 61.5,182.5C 61.5569,183.609 61.8902,184.609 62.5,185.5C 62.5401,203.417 63.2068,221.25 64.5,239C 64.1667,239.333 63.8333,239.667 63.5,240C 64.1667,243.333 64.8333,246.667 65.5,250C 64.8253,252.242 65.3253,254.409 67,256.5C 67.6543,257.696 68.1543,257.696 68.5,256.5C 68.1667,255.833 67.8333,255.167 67.5,254.5C 69.5228,247.245 70.8561,239.578 71.5,231.5C 73.46,230.862 75.2933,230.862 77,231.5C 77.6667,227.5 78.3333,227.5 79,231.5C 79.5518,228.803 81.0518,226.803 83.5,225.5C 85.1017,226.55 85.935,225.883 86,223.5C 86.8636,226.669 88.1969,226.335 90,222.5C 90.3333,223.167 90.6667,223.833 91,224.5C 91.8624,222.913 92.5291,221.246 93,219.5C 93.3333,220.167 93.6667,220.833 94,221.5C 94.9906,220.061 96.324,219.061 98,218.5C 98.3333,219.167 98.6667,219.833 99,220.5C 99.658,218.892 99.158,217.725 97.5,217C 99.1929,214.048 101.026,213.882 103,216.5C 103.333,215.167 103.667,213.833 104,212.5C 104.388,213.428 105.055,214.095 106,214.5C 108.684,212.649 110.851,210.316 112.5,207.5C 112.205,208.826 112.705,210.159 114,211.5C 115.421,208.991 117.088,206.657 119,204.5C 119.333,205.167 119.667,205.833 120,206.5C 121.487,205.747 121.654,204.914 120.5,204C 121.872,203.598 123.205,203.098 124.5,202.5C 125.598,198.639 126.431,198.639 127,202.5C 127.471,200.754 128.138,199.087 129,197.5C 129.639,200.228 130.806,200.728 132.5,199C 131.366,197.984 131.699,197.317 133.5,197C 131.842,196.275 131.342,195.108 132,193.5C 132.388,194.428 133.055,195.095 134,195.5C 135.762,195.056 135.595,194.556 133.5,194C 135.714,192.727 138.047,191.727 140.5,191C 138.053,189.771 137.887,188.271 140,186.5C 141.154,188.957 142.488,188.957 144,186.5C 144.333,186.833 144.667,187.167 145,187.5C 145.84,184.536 146.84,184.203 148,186.5C 148.249,185.376 148.749,184.376 149.5,183.5C 150.716,184.002 151.883,184.335 153,184.5C 154.861,183.236 156.861,182.236 159,181.5C 171.547,182.064 184.381,182.397 197.5,182.5 Z"/></g>
<g><path style="opacity:0.057" fill="#0d0f12" d="M 256.5,182.5 C 258.845,183.512 260.178,185.346 260.5,188C 259.88,193.209 259.88,198.709 260.5,204.5C 259.85,204.196 259.183,203.863 258.5,203.5C 257.763,196.478 257.097,189.478 256.5,182.5 Z"/></g>
<g><path style="opacity:0.044" fill="#0c0e11" d="M 60.5,183.5 C 60.5,190.833 60.5,198.167 60.5,205.5C 59.5,204.833 58.5,204.167 57.5,203.5C 56.8874,197.632 57.0541,191.632 58,185.5C 58.7083,184.619 59.5416,183.953 60.5,183.5 Z"/></g>
<g><path style="opacity:1" fill="#06539a" d="M 244.5,264.5 C 226.815,262.924 209.148,261.091 191.5,259C 187.02,249.208 182.686,239.375 178.5,229.5C 178.343,228.127 178.51,226.793 179,225.5C 182.199,226.236 182.365,225.403 179.5,223C 180.167,222.667 180.833,222.333 181.5,222C 180.257,220.846 179.257,219.512 178.5,218C 179.687,216.981 180.687,215.814 181.5,214.5C 181.054,212.632 180.721,210.799 180.5,209C 183.802,208.135 186.802,206.135 189.5,203C 186.975,200.416 187.475,198.249 191,196.5C 191.333,197.167 191.667,197.833 192,198.5C 192.862,196.913 193.529,195.246 194,193.5C 195.101,195.394 196.434,196.061 198,195.5C 198.5,195 199,194.5 199.5,194C 196.723,191.827 196.89,191.327 200,192.5C 201.487,191.747 201.654,190.914 200.5,190C 201.742,186.643 202.576,186.81 203,190.5C 203.273,188.899 203.773,187.399 204.5,186C 209.324,185.626 214.157,185.46 219,185.5C 223.518,186.213 227.851,187.546 232,189.5C 237.297,190.061 242.463,190.061 247.5,189.5C 248.251,190.376 248.751,191.376 249,192.5C 249.406,216.504 249.906,240.504 250.5,264.5C 248.5,264.5 246.5,264.5 244.5,264.5 Z"/></g>
<g><path style="opacity:0.057" fill="#0e0f13" d="M 280.5,210.5 C 281.974,211.436 282.974,212.77 283.5,214.5C 282.5,214.5 281.5,214.5 280.5,214.5C 280.5,213.167 280.5,211.833 280.5,210.5 Z"/></g>
<g><path style="opacity:1" fill="#131a2d" d="M 278.5,230.5 C 278.281,231.675 278.614,232.675 279.5,233.5C 283.631,232.204 287.631,232.204 291.5,233.5C 290.71,234.401 289.71,235.068 288.5,235.5C 285.328,236.446 282.328,237.779 279.5,239.5C 284.833,240.167 290.167,240.833 295.5,241.5C 291.714,244.263 287.38,245.763 282.5,246C 282.043,246.414 281.709,246.914 281.5,247.5C 287.888,248.79 294.222,248.79 300.5,247.5C 300.267,249.062 299.6,250.395 298.5,251.5C 293.286,252.804 287.952,253.637 282.5,254C 281.663,255.011 281.33,256.178 281.5,257.5C 287.657,257.178 293.657,257.845 299.5,259.5C 299.5,259.833 299.5,260.167 299.5,260.5C 294.178,261.029 288.844,261.529 283.5,262C 283.043,262.414 282.709,262.914 282.5,263.5C 288.884,264.307 294.884,265.641 300.5,267.5C 299.662,267.842 299.328,268.508 299.5,269.5C 294.156,269.334 288.823,269.501 283.5,270C 282.643,270.689 281.977,271.522 281.5,272.5C 282.309,274.071 282.643,275.738 282.5,277.5C 282.167,277.5 281.833,277.5 281.5,277.5C 278.813,277.664 276.146,277.497 273.5,277C 272.244,276.583 271.577,275.75 271.5,274.5C 271.31,271.871 271.643,269.038 272.5,266C 270.754,263.626 270.42,261.126 271.5,258.5C 270.655,253.108 269.488,247.775 268,242.5C 266.126,237.063 262.626,234.397 257.5,234.5C 257.169,227.137 257.503,219.803 258.5,212.5C 260.102,214.427 261.435,216.594 262.5,219C 264.047,219.333 265.38,218.833 266.5,217.5C 268.089,220.253 270.422,222.086 273.5,223C 274.664,225.947 276.33,228.447 278.5,230.5 Z"/></g>
<g><path style="opacity:1" fill="#062748" d="M 262.5,203.5 C 260.604,208.406 261.437,212.739 265,216.5C 266.186,214.323 268.019,213.323 270.5,213.5C 270.5,214.833 270.5,216.167 270.5,217.5C 274.781,216.483 277.114,218.15 277.5,222.5C 279.743,223.474 282.076,223.808 284.5,223.5C 284.649,224.552 284.483,225.552 284,226.5C 282.008,227.665 280.175,228.998 278.5,230.5C 276.33,228.447 274.664,225.947 273.5,223C 270.422,222.086 268.089,220.253 266.5,217.5C 265.38,218.833 264.047,219.333 262.5,219C 261.435,216.594 260.102,214.427 258.5,212.5C 257.503,219.803 257.169,227.137 257.5,234.5C 257.5,235.833 257.5,237.167 257.5,238.5C 257.167,238.5 256.833,238.5 256.5,238.5C 256.334,229.494 256.5,220.494 257,211.5C 258.267,209.186 259.434,206.852 260.5,204.5C 261.167,204.167 261.833,203.833 262.5,203.5 Z"/></g>
<g><path style="opacity:1" fill="#2e5e92" d="M 280.5,210.5 C 280.5,211.833 280.5,213.167 280.5,214.5C 281.5,214.5 282.5,214.5 283.5,214.5C 285.933,214.273 287.599,215.273 288.5,217.5C 288.5,218.5 288.5,219.5 288.5,220.5C 286.958,221.301 285.292,221.634 283.5,221.5C 279.167,223.176 277.5,221.509 278.5,216.5C 271.8,216.763 269.8,213.763 272.5,207.5C 275.66,206.73 278.326,207.73 280.5,210.5 Z"/></g>
<g><path style="opacity:1" fill="#6e8fb6" d="M 283.5,221.5 C 280.53,221.254 279.197,219.588 279.5,216.5C 286.454,214.434 287.787,216.1 283.5,221.5 Z"/></g>
<g><path style="opacity:1" fill="#0f3861" d="M 57.5,203.5 C 58.5,204.167 59.5,204.833 60.5,205.5C 60.6621,207.527 60.4955,209.527 60,211.5C 59,210.833 58,210.167 57,209.5C 55.8889,212.955 57.0556,214.955 60.5,215.5C 60.5,218.167 60.5,220.833 60.5,223.5C 59.7354,223.077 58.9021,222.743 58,222.5C 55.0733,224.349 52.0733,225.016 49,224.5C 48.0255,222.122 47.3589,222.456 47,225.5C 43.4375,226.335 39.9375,225.835 36.5,224C 34.1811,222.853 32.8477,221.019 32.5,218.5C 36.5375,215.513 40.2042,212.013 43.5,208C 48.2456,206.757 52.9123,205.257 57.5,203.5 Z"/></g>
<g><path style="opacity:0.098" fill="#0d0f13" d="M 288.5,217.5 C 290.316,219.118 291.649,221.118 292.5,223.5C 291.5,223.5 290.5,223.5 289.5,223.5C 288.89,222.609 288.557,221.609 288.5,220.5C 288.5,219.5 288.5,218.5 288.5,217.5 Z"/></g>
<g><path style="opacity:1" fill="#144370" d="M 262.5,203.5 C 266.532,203.186 269.865,204.519 272.5,207.5C 269.8,213.763 271.8,216.763 278.5,216.5C 277.5,221.509 279.167,223.176 283.5,221.5C 285.292,221.634 286.958,221.301 288.5,220.5C 288.557,221.609 288.89,222.609 289.5,223.5C 287.41,223.45 286.077,224.45 285.5,226.5C 287.122,228.623 289.122,228.956 291.5,227.5C 292.246,226.264 292.579,224.93 292.5,223.5C 293.401,224.29 294.068,225.29 294.5,226.5C 294.772,228.895 294.772,231.229 294.5,233.5C 293.5,233.5 292.5,233.5 291.5,233.5C 287.631,232.204 283.631,232.204 279.5,233.5C 278.614,232.675 278.281,231.675 278.5,230.5C 280.175,228.998 282.008,227.665 284,226.5C 284.483,225.552 284.649,224.552 284.5,223.5C 282.076,223.808 279.743,223.474 277.5,222.5C 277.114,218.15 274.781,216.483 270.5,217.5C 270.5,216.167 270.5,214.833 270.5,213.5C 268.019,213.323 266.186,214.323 265,216.5C 261.437,212.739 260.604,208.406 262.5,203.5 Z"/></g>
<g><path style="opacity:1" fill="#90a6c1" d="M 265.5,205.5 C 269.071,205.408 270.238,207.074 269,210.5C 266.842,211.677 265.342,211.01 264.5,208.5C 264.685,207.416 265.018,206.416 265.5,205.5 Z"/></g>
<g><path style="opacity:0.996" fill="#7796ba" d="M 289.5,223.5 C 290.5,223.5 291.5,223.5 292.5,223.5C 292.579,224.93 292.246,226.264 291.5,227.5C 289.122,228.956 287.122,228.623 285.5,226.5C 286.077,224.45 287.41,223.45 289.5,223.5 Z"/></g>
<g><path style="opacity:1" fill="#072749" d="M 32.5,218.5 C 32.8477,221.019 34.1811,222.853 36.5,224C 39.9375,225.835 43.4375,226.335 47,225.5C 47.3589,222.456 48.0255,222.122 49,224.5C 52.0733,225.016 55.0733,224.349 58,222.5C 58.9021,222.743 59.7354,223.077 60.5,223.5C 60.5,225.167 60.5,226.833 60.5,228.5C 59.7784,228.082 59.2784,227.416 59,226.5C 57.4002,227.866 55.5668,228.866 53.5,229.5C 54.6405,230.425 54.6405,231.259 53.5,232C 51.5,232.333 49.5,232.667 47.5,233C 49.0614,233.941 50.3947,235.108 51.5,236.5C 47.6875,237.167 44.0208,237.834 40.5,238.5C 36.2669,236.549 31.9336,234.883 27.5,233.5C 28.3696,231.968 28.0362,230.468 26.5,229C 27.305,227.887 27.9717,226.721 28.5,225.5C 28.3284,224.508 28.6618,223.842 29.5,223.5C 29.2729,221.067 30.2729,219.401 32.5,218.5 Z"/></g>
<g><path style="opacity:1" fill="#214b77" d="M 29.5,223.5 C 31.1992,223.34 32.8659,223.506 34.5,224C 37.1667,226 39.8333,228 42.5,230C 43.8515,232.125 43.1848,233.292 40.5,233.5C 38.1609,231.68 35.4942,230.513 32.5,230C 30.5494,228.266 29.5494,226.099 29.5,223.5 Z"/></g>
<g><path style="opacity:0.964" fill="#121a2c" d="M 60.5,228.5 C 60.5,230.833 60.5,233.167 60.5,235.5C 57.2872,236.164 55.1206,238.164 54,241.5C 52.1001,247.7 50.9335,254.033 50.5,260.5C 46.9252,260.079 43.2585,259.912 39.5,260C 42.6442,259.034 45.6442,257.701 48.5,256C 49.8333,255 49.8333,254 48.5,253C 43.8832,253.476 39.2166,253.476 34.5,253C 39.6036,252.046 44.6036,250.713 49.5,249C 50.6405,248.259 50.6405,247.425 49.5,246.5C 47.2338,245.686 44.9005,245.186 42.5,245C 45.4781,244.304 48.4781,243.804 51.5,243.5C 51.5,242.5 51.5,241.5 51.5,240.5C 48.8728,239.908 46.2062,239.575 43.5,239.5C 42.609,238.89 41.609,238.557 40.5,238.5C 44.0208,237.834 47.6875,237.167 51.5,236.5C 50.3947,235.108 49.0614,233.941 47.5,233C 49.5,232.667 51.5,232.333 53.5,232C 54.6405,231.259 54.6405,230.425 53.5,229.5C 55.5668,228.866 57.4002,227.866 59,226.5C 59.2784,227.416 59.7784,228.082 60.5,228.5 Z"/></g>
<g><path style="opacity:1" fill="#7593b8" d="M 291.5,233.5 C 292.5,233.5 293.5,233.5 294.5,233.5C 294.5,234.833 294.5,236.167 294.5,237.5C 291.99,237.946 289.99,237.28 288.5,235.5C 289.71,235.068 290.71,234.401 291.5,233.5 Z"/></g>
<g><path style="opacity:1" fill="#106ab7" d="M 255.5,181.5 C 256.167,181.5 256.5,181.833 256.5,182.5C 257.097,189.478 257.763,196.478 258.5,203.5C 259.183,203.863 259.85,204.196 260.5,204.5C 259.434,206.852 258.267,209.186 257,211.5C 256.5,220.494 256.334,229.494 256.5,238.5C 256.5,247.167 256.5,255.833 256.5,264.5C 255.5,264.5 254.5,264.5 253.5,264.5C 253.044,243.155 252.21,221.822 251,200.5C 251.102,196.044 250.268,192.044 248.5,188.5C 251.188,186.479 253.521,184.146 255.5,181.5 Z"/></g>
<g><path style="opacity:0.056" fill="#0a0d10" d="M 271.5,274.5 C 270.5,274.5 269.5,274.5 268.5,274.5C 268.219,269.325 267.552,263.992 266.5,258.5C 267.192,256.665 266.858,254.832 265.5,253C 265.833,252.667 266.167,252.333 266.5,252C 265.478,249.455 264.312,246.955 263,244.5C 261.951,243.483 260.784,243.316 259.5,244C 260.65,252.755 260.816,261.588 260,270.5C 254.394,275.487 251.727,281.82 252,289.5C 242.643,307.983 228.31,318.649 209,321.5C 208.536,322.094 208.369,322.761 208.5,323.5C 206.5,322.167 204.5,320.833 202.5,319.5C 202.5,318.167 202.5,316.833 202.5,315.5C 222.676,313.595 237.676,303.928 247.5,286.5C 249.764,281.435 250.764,276.102 250.5,270.5C 251.167,270.5 251.833,270.5 252.5,270.5C 253.451,269.081 253.784,267.415 253.5,265.5C 254.833,265.5 256.167,265.5 257.5,265.5C 257.5,256.5 257.5,247.5 257.5,238.5C 257.5,237.167 257.5,235.833 257.5,234.5C 262.626,234.397 266.126,237.063 268,242.5C 269.488,247.775 270.655,253.108 271.5,258.5C 270.42,261.126 270.754,263.626 272.5,266C 271.643,269.038 271.31,271.871 271.5,274.5 Z"/></g>
<g><path style="opacity:1" fill="#b1b3b7" d="M 178.5,229.5 C 182.686,239.375 187.02,249.208 191.5,259C 209.148,261.091 226.815,262.924 244.5,264.5C 246.948,265.473 249.615,265.806 252.5,265.5C 252.5,267.167 252.5,268.833 252.5,270.5C 251.833,270.5 251.167,270.5 250.5,270.5C 233.184,268.687 215.851,267.021 198.5,265.5C 195.411,264.215 192.078,263.549 188.5,263.5C 188.747,261.142 188.081,259.142 186.5,257.5C 184.011,250.528 181.011,243.861 177.5,237.5C 173.936,228.707 170.103,220.04 166,211.5C 163.443,214.192 160.609,216.525 157.5,218.5C 156.712,217.23 155.712,216.23 154.5,215.5C 153.185,214.524 151.852,213.524 150.5,212.5C 145.622,221.589 141.289,230.922 137.5,240.5C 135.93,243.314 134.597,246.314 133.5,249.5C 131.788,253.927 129.788,258.26 127.5,262.5C 106.681,266.349 85.6809,268.682 64.5,269.5C 64.5,268.167 64.5,266.833 64.5,265.5C 84.9649,262.694 105.632,260.36 126.5,258.5C 133.764,239.967 141.597,221.634 150,203.5C 152.683,206.016 155.183,208.683 157.5,211.5C 160.681,209.408 163.681,207.075 166.5,204.5C 170.259,213.015 174.259,221.349 178.5,229.5 Z"/></g>
<g><path style="opacity:1" fill="#63748b" d="M 165.5,233.5 C 166.237,236.725 166.903,240.059 167.5,243.5C 163.192,244.368 158.859,244.534 154.5,244C 150.241,239.245 150.574,234.912 155.5,231C 159.203,230.421 162.869,230.588 166.5,231.5C 166.5,230.167 166.5,228.833 166.5,227.5C 153.725,223.796 147.558,228.463 148,241.5C 152.132,248.156 157.965,250.156 165.5,247.5C 165.38,248.586 164.713,249.253 163.5,249.5C 160.917,249.981 158.417,250.648 156,251.5C 153.146,249.402 150.479,247.069 148,244.5C 146.352,241.437 145.518,238.437 145.5,235.5C 145.389,234.883 145.056,234.383 144.5,234C 145.747,232.048 147.081,230.215 148.5,228.5C 154.134,225.613 160.134,224.78 166.5,226C 167.954,228.784 167.621,231.284 165.5,233.5 Z"/></g>
<g><path style="opacity:1" fill="#cecfd0" d="M 165.5,233.5 C 165.5,236.167 165.5,238.833 165.5,241.5C 160.069,242.906 157.735,240.906 158.5,235.5C 160.144,235.286 161.644,235.62 163,236.5C 163.236,234.881 164.069,233.881 165.5,233.5 Z"/></g>
<g><path style="opacity:1" fill="#eaebea" d="M 167.5,243.5 C 167.771,245.38 167.104,246.713 165.5,247.5C 157.965,250.156 152.132,248.156 148,241.5C 147.558,228.463 153.725,223.796 166.5,227.5C 166.5,228.833 166.5,230.167 166.5,231.5C 162.869,230.588 159.203,230.421 155.5,231C 150.574,234.912 150.241,239.245 154.5,244C 158.859,244.534 163.192,244.368 167.5,243.5 Z"/></g>
<g><path style="opacity:1" fill="#345073" d="M 142.5,244.5 C 142.072,242.595 142.738,240.762 144.5,239C 143.713,237.687 144.046,236.52 145.5,235.5C 145.518,238.437 146.352,241.437 148,244.5C 150.479,247.069 153.146,249.402 156,251.5C 158.417,250.648 160.917,249.981 163.5,249.5C 164.713,249.253 165.38,248.586 165.5,247.5C 167.104,246.713 167.771,245.38 167.5,243.5C 166.903,240.059 166.237,236.725 165.5,233.5C 167.621,231.284 167.954,228.784 166.5,226C 160.134,224.78 154.134,225.613 148.5,228.5C 149.584,225.996 150.917,223.663 152.5,221.5C 155.7,220.963 158.534,220.63 161,220.5C 164.302,221.365 167.302,223.365 170,226.5C 170.273,228.101 170.773,229.601 171.5,231C 170.167,235.667 170.167,240.333 171.5,245C 169.924,250.241 166.424,253.407 161,254.5C 159,254.5 157,254.5 155,254.5C 153.47,253.364 152.137,252.364 151,251.5C 149.984,252.634 149.317,252.301 149,250.5C 148.667,250.833 148.333,251.167 148,251.5C 146.303,248.98 144.47,246.647 142.5,244.5 Z"/></g>
<g><path style="opacity:1" fill="#113f6b" d="M 177.5,237.5 C 176.209,238.542 176.209,239.708 177.5,241C 175.832,242.567 175.498,244.234 176.5,246C 176.095,246.945 175.428,247.612 174.5,248C 174.833,248.333 175.167,248.667 175.5,249C 174.5,250 173.5,251 172.5,252C 172.833,252.333 173.167,252.667 173.5,253C 169.833,255.97 165.667,258.136 161,259.5C 159,259.5 157,259.5 155,259.5C 153.445,257.854 151.779,257.521 150,258.5C 149.333,255.833 148.667,255.833 148,258.5C 146.345,255.789 144.345,254.123 142,253.5C 140.585,250.998 140.419,248.332 141.5,245.5C 141.5,244.833 141.833,244.5 142.5,244.5C 144.47,246.647 146.303,248.98 148,251.5C 148.333,251.167 148.667,250.833 149,250.5C 149.317,252.301 149.984,252.634 151,251.5C 152.137,252.364 153.47,253.364 155,254.5C 157,254.5 159,254.5 161,254.5C 166.424,253.407 169.924,250.241 171.5,245C 170.167,240.333 170.167,235.667 171.5,231C 170.773,229.601 170.273,228.101 170,226.5C 167.302,223.365 164.302,221.365 161,220.5C 158.534,220.63 155.7,220.963 152.5,221.5C 153.63,219.685 154.296,217.685 154.5,215.5C 155.712,216.23 156.712,217.23 157.5,218.5C 160.609,216.525 163.443,214.192 166,211.5C 170.103,220.04 173.936,228.707 177.5,237.5 Z"/></g>
<g><path style="opacity:1" fill="#273951" d="M 154.5,215.5 C 154.296,217.685 153.63,219.685 152.5,221.5C 150.917,223.663 149.584,225.996 148.5,228.5C 147.081,230.215 145.747,232.048 144.5,234C 145.056,234.383 145.389,234.883 145.5,235.5C 144.046,236.52 143.713,237.687 144.5,239C 142.738,240.762 142.072,242.595 142.5,244.5C 141.833,244.5 141.5,244.833 141.5,245.5C 141.167,245.5 140.833,245.5 140.5,245.5C 139.716,243.971 138.716,242.304 137.5,240.5C 141.289,230.922 145.622,221.589 150.5,212.5C 151.852,213.524 153.185,214.524 154.5,215.5 Z"/></g>
<g><path style="opacity:1" fill="#103a64" d="M 27.5,233.5 C 31.9336,234.883 36.2669,236.549 40.5,238.5C 41.609,238.557 42.609,238.89 43.5,239.5C 43.3893,240.117 43.056,240.617 42.5,241C 20.0865,240.375 20.0865,242.208 42.5,246.5C 42.5,247.5 42.5,248.5 42.5,249.5C 35.5223,250.122 28.8556,249.122 22.5,246.5C 23.8027,242.672 24.6361,238.672 25,234.5C 25.6708,233.748 26.5041,233.414 27.5,233.5 Z"/></g>
<g><path style="opacity:0.053" fill="#0b0d11" d="M 60.5,235.5 C 60.5,245.5 60.5,255.5 60.5,265.5C 61.8333,265.5 63.1667,265.5 64.5,265.5C 64.5,266.833 64.5,268.167 64.5,269.5C 65.2411,272.413 65.7411,275.413 66,278.5C 67.6883,279.325 67.8549,280.325 66.5,281.5C 66.9767,282.478 67.6433,283.311 68.5,284C 67.3659,285.016 67.6992,285.683 69.5,286C 69.1667,286.333 68.8333,286.667 68.5,287C 70.1775,287.484 70.8442,288.317 70.5,289.5C 76.7313,299.917 86.0647,307.417 98.5,312C 105.013,314.129 111.68,315.296 118.5,315.5C 118.567,316.959 118.234,318.292 117.5,319.5C 116.206,320.29 115.039,321.29 114,322.5C 111.003,321.134 107.836,320.467 104.5,320.5C 87.8214,317.377 74.988,308.377 66,293.5C 63.5139,288.248 62.3473,282.915 62.5,277.5C 60.7325,273.891 58.7325,270.391 56.5,267C 57.2543,260.754 57.421,254.587 57,248.5C 55.2545,251.603 54.7545,254.769 55.5,258C 54.2228,263.385 53.5562,268.885 53.5,274.5C 53.5,274.833 53.5,275.167 53.5,275.5C 52.1667,275.5 50.8333,275.5 49.5,275.5C 50.143,270.453 50.4763,265.453 50.5,260.5C 50.9335,254.033 52.1001,247.7 54,241.5C 55.1206,238.164 57.2872,236.164 60.5,235.5 Z"/></g>
<g><path style="opacity:0.051" fill="#0d0f13" d="M 28.5,225.5 C 27.9717,226.721 27.305,227.887 26.5,229C 28.0362,230.468 28.3696,231.968 27.5,233.5C 26.5041,233.414 25.6708,233.748 25,234.5C 24.6361,238.672 23.8027,242.672 22.5,246.5C 20.7799,248.417 21.4466,249.917 24.5,251C 19.9068,253.666 19.5735,256.666 23.5,260C 19.6137,262.526 19.6137,265.192 23.5,268C 22.6667,268.833 21.8333,269.667 21,270.5C 21.256,272.602 21.0893,274.602 20.5,276.5C 19.2905,276.932 18.2905,277.599 17.5,278.5C 17.1667,278.5 16.8333,278.5 16.5,278.5C 17.5732,275.279 17.5732,272.112 16.5,269C 18.3607,265.303 18.694,261.47 17.5,257.5C 17.9767,256.522 18.6433,255.689 19.5,255C 18.784,248.745 19.6173,242.579 22,236.5C 23.7878,234.996 24.2878,233.329 23.5,231.5C 24.8064,230.088 25.6397,228.421 26,226.5C 26.6708,225.748 27.5041,225.414 28.5,225.5 Z"/></g>
<g><path style="opacity:1" fill="#07325a" d="M 177.5,237.5 C 181.011,243.861 184.011,250.528 186.5,257.5C 185.883,257.389 185.383,257.056 185,256.5C 185.763,259.42 185.097,261.753 183,263.5C 181.691,261.109 180.691,261.109 180,263.5C 179.026,261.122 178.359,261.456 178,264.5C 177.667,263.5 177.333,262.5 177,261.5C 176.667,263.167 176.333,264.833 176,266.5C 175.086,262.815 174.419,263.148 174,267.5C 173.667,267.167 173.333,266.833 173,266.5C 171.333,267.5 169.667,268.5 168,269.5C 167.085,268.672 166.419,267.672 166,266.5C 165.667,267.833 165.333,269.167 165,270.5C 164.333,267.833 163.667,267.833 163,270.5C 161.211,270.623 159.378,270.623 157.5,270.5C 156.522,270.977 155.689,271.643 155,272.5C 153.604,270.473 151.938,270.14 150,271.5C 148.691,269.109 147.691,269.109 147,271.5C 146.333,268.833 145.667,268.833 145,271.5C 144,270.167 143,270.167 142,271.5C 141.333,268.833 140.667,268.833 140,271.5C 138.691,269.109 137.691,269.109 137,271.5C 136.333,268.833 135.667,268.833 135,271.5C 134.5,271 134,270.5 133.5,270C 136.034,261.793 138.367,253.626 140.5,245.5C 140.833,245.5 141.167,245.5 141.5,245.5C 140.419,248.332 140.585,250.998 142,253.5C 144.345,254.123 146.345,255.789 148,258.5C 148.667,255.833 149.333,255.833 150,258.5C 151.779,257.521 153.445,257.854 155,259.5C 157,259.5 159,259.5 161,259.5C 165.667,258.136 169.833,255.97 173.5,253C 173.167,252.667 172.833,252.333 172.5,252C 173.5,251 174.5,250 175.5,249C 175.167,248.667 174.833,248.333 174.5,248C 175.428,247.612 176.095,246.945 176.5,246C 175.498,244.234 175.832,242.567 177.5,241C 176.209,239.708 176.209,238.542 177.5,237.5 Z"/></g>
<g><path style="opacity:1" fill="#144473" d="M 294.5,233.5 C 295.496,233.414 296.329,233.748 297,234.5C 298.953,237.257 298.787,239.757 296.5,242C 298.814,243.087 300.148,244.921 300.5,247.5C 294.222,248.79 287.888,248.79 281.5,247.5C 281.709,246.914 282.043,246.414 282.5,246C 287.38,245.763 291.714,244.263 295.5,241.5C 290.167,240.833 284.833,240.167 279.5,239.5C 282.328,237.779 285.328,236.446 288.5,235.5C 289.99,237.28 291.99,237.946 294.5,237.5C 294.5,236.167 294.5,234.833 294.5,233.5 Z"/></g>
<g><path style="opacity:0.055" fill="#0d0f12" d="M 294.5,226.5 C 296.956,229.986 298.956,233.819 300.5,238C 301.068,241.251 301.902,244.417 303,247.5C 303.886,257.766 304.386,268.099 304.5,278.5C 303.609,277.89 302.609,277.557 301.5,277.5C 301.663,275.143 301.497,272.81 301,270.5C 300.617,269.944 300.117,269.611 299.5,269.5C 299.328,268.508 299.662,267.842 300.5,267.5C 301.878,265.03 301.545,262.696 299.5,260.5C 299.5,260.167 299.5,259.833 299.5,259.5C 302.291,256.423 301.957,253.757 298.5,251.5C 299.6,250.395 300.267,249.062 300.5,247.5C 300.148,244.921 298.814,243.087 296.5,242C 298.787,239.757 298.953,237.257 297,234.5C 296.329,233.748 295.496,233.414 294.5,233.5C 294.772,231.229 294.772,228.895 294.5,226.5 Z"/></g>
<g><path style="opacity:1" fill="#124271" d="M 298.5,251.5 C 301.957,253.757 302.291,256.423 299.5,259.5C 293.657,257.845 287.657,257.178 281.5,257.5C 281.33,256.178 281.663,255.011 282.5,254C 287.952,253.637 293.286,252.804 298.5,251.5 Z"/></g>
<g><path style="opacity:1" fill="#052c4f" d="M 137.5,240.5 C 138.716,242.304 139.716,243.971 140.5,245.5C 138.367,253.626 136.034,261.793 133.5,270C 134,270.5 134.5,271 135,271.5C 135.667,268.833 136.333,268.833 137,271.5C 137.691,269.109 138.691,269.109 140,271.5C 140.667,268.833 141.333,268.833 142,271.5C 143,270.167 144,270.167 145,271.5C 145.667,268.833 146.333,268.833 147,271.5C 147.691,269.109 148.691,269.109 150,271.5C 151.938,270.14 153.604,270.473 155,272.5C 155.689,271.643 156.522,270.977 157.5,270.5C 159.378,270.623 161.211,270.623 163,270.5C 163.667,267.833 164.333,267.833 165,270.5C 165.333,269.167 165.667,267.833 166,266.5C 166.419,267.672 167.085,268.672 168,269.5C 169.667,268.5 171.333,267.5 173,266.5C 173.333,266.833 173.667,267.167 174,267.5C 174.419,263.148 175.086,262.815 176,266.5C 176.333,264.833 176.667,263.167 177,261.5C 177.333,262.5 177.667,263.5 178,264.5C 178.359,261.456 179.026,261.122 180,263.5C 180.691,261.109 181.691,261.109 183,263.5C 185.097,261.753 185.763,259.42 185,256.5C 185.383,257.056 185.883,257.389 186.5,257.5C 188.081,259.142 188.747,261.142 188.5,263.5C 192.078,263.549 195.411,264.215 198.5,265.5C 196.015,266.26 196.015,267.26 198.5,268.5C 199.29,269.401 200.29,270.068 201.5,270.5C 204.383,271.606 207.217,272.939 210,274.5C 213.396,274.41 216.73,274.41 220,274.5C 220.27,275.932 219.604,276.932 218,277.5C 210.272,277.237 202.939,277.237 196,277.5C 194.667,278.167 193.333,278.833 192,279.5C 190.612,278.446 189.112,278.28 187.5,279C 188.167,279.333 188.833,279.667 189.5,280C 187.655,281.128 185.655,281.628 183.5,281.5C 183.307,277.551 182.807,277.551 182,281.5C 181.667,281.167 181.333,280.833 181,280.5C 178,281.167 175,281.833 172,282.5C 149.412,282.486 125.578,282.486 100.5,282.5C 94.1667,282.333 87.8333,282.167 81.5,282C 76.7198,281.31 75.8864,279.476 79,276.5C 79.3333,277.167 79.6667,277.833 80,278.5C 80.6667,277.167 81.3333,277.167 82,278.5C 83.9162,277.072 86.0829,276.072 88.5,275.5C 102.864,272.913 117.198,271.08 131.5,270C 133.462,264.611 135.129,259.111 136.5,253.5C 136.423,251.701 135.923,250.034 135,248.5C 134.617,249.056 134.117,249.389 133.5,249.5C 134.597,246.314 135.93,243.314 137.5,240.5 Z"/></g>
<g><path style="opacity:1" fill="#174a7c" d="M 299.5,260.5 C 301.545,262.696 301.878,265.03 300.5,267.5C 294.884,265.641 288.884,264.307 282.5,263.5C 282.709,262.914 283.043,262.414 283.5,262C 288.844,261.529 294.178,261.029 299.5,260.5 Z"/></g>
<g><path style="opacity:1" fill="#09294b" d="M 43.5,239.5 C 46.2062,239.575 48.8728,239.908 51.5,240.5C 51.5,241.5 51.5,242.5 51.5,243.5C 48.4781,243.804 45.4781,244.304 42.5,245C 44.9005,245.186 47.2338,245.686 49.5,246.5C 50.6405,247.425 50.6405,248.259 49.5,249C 44.6036,250.713 39.6036,252.046 34.5,253C 39.2166,253.476 43.8832,253.476 48.5,253C 49.8333,254 49.8333,255 48.5,256C 45.6442,257.701 42.6442,259.034 39.5,260C 43.2585,259.912 46.9252,260.079 50.5,260.5C 50.4763,265.453 50.143,270.453 49.5,275.5C 39.8859,276.449 30.2193,276.782 20.5,276.5C 21.0893,274.602 21.256,272.602 21,270.5C 21.8333,269.667 22.6667,268.833 23.5,268C 19.6137,265.192 19.6137,262.526 23.5,260C 19.5735,256.666 19.9068,253.666 24.5,251C 21.4466,249.917 20.7799,248.417 22.5,246.5C 28.8556,249.122 35.5223,250.122 42.5,249.5C 42.5,248.5 42.5,247.5 42.5,246.5C 20.0865,242.208 20.0865,240.375 42.5,241C 43.056,240.617 43.3893,240.117 43.5,239.5 Z"/></g>
<g><path style="opacity:1" fill="#052444" d="M 201.5,270.5 C 213.453,272.327 225.453,273.827 237.5,275C 239.698,276.878 239.864,279.045 238,281.5C 236.513,282.155 235.347,283.155 234.5,284.5C 219.32,286.146 204.487,286.48 190,285.5C 188.933,286.191 187.766,286.691 186.5,287C 186.833,287.333 187.167,287.667 187.5,288C 185.236,288.236 183.069,288.736 181,289.5C 179.111,288.911 177.111,288.577 175,288.5C 170.667,289.167 166.333,289.833 162,290.5C 136.264,289.392 110.764,289.392 85.5,290.5C 80.9157,288.953 76.4157,287.287 72,285.5C 71.5,285.667 71,285.833 70.5,286C 71.365,287.359 72.365,288.526 73.5,289.5C 72.5,289.5 71.5,289.5 70.5,289.5C 70.8442,288.317 70.1775,287.484 68.5,287C 68.8333,286.667 69.1667,286.333 69.5,286C 67.6992,285.683 67.3659,285.016 68.5,284C 67.6433,283.311 66.9767,282.478 66.5,281.5C 67.8549,280.325 67.6883,279.325 66,278.5C 65.7411,275.413 65.2411,272.413 64.5,269.5C 85.6809,268.682 106.681,266.349 127.5,262.5C 129.788,258.26 131.788,253.927 133.5,249.5C 134.117,249.389 134.617,249.056 135,248.5C 135.923,250.034 136.423,251.701 136.5,253.5C 135.129,259.111 133.462,264.611 131.5,270C 117.198,271.08 102.864,272.913 88.5,275.5C 86.0829,276.072 83.9162,277.072 82,278.5C 81.3333,277.167 80.6667,277.167 80,278.5C 79.6667,277.833 79.3333,277.167 79,276.5C 75.8864,279.476 76.7198,281.31 81.5,282C 87.8333,282.167 94.1667,282.333 100.5,282.5C 125.578,282.486 149.412,282.486 172,282.5C 175,281.833 178,281.167 181,280.5C 181.333,280.833 181.667,281.167 182,281.5C 182.807,277.551 183.307,277.551 183.5,281.5C 185.655,281.628 187.655,281.128 189.5,280C 188.833,279.667 188.167,279.333 187.5,279C 189.112,278.28 190.612,278.446 192,279.5C 193.333,278.833 194.667,278.167 196,277.5C 202.939,277.237 210.272,277.237 218,277.5C 219.604,276.932 220.27,275.932 220,274.5C 216.73,274.41 213.396,274.41 210,274.5C 207.217,272.939 204.383,271.606 201.5,270.5 Z"/></g>
<g><path style="opacity:1" fill="#093057" d="M 299.5,269.5 C 300.117,269.611 300.617,269.944 301,270.5C 301.497,272.81 301.663,275.143 301.5,277.5C 295.167,277.5 288.833,277.5 282.5,277.5C 282.643,275.738 282.309,274.071 281.5,272.5C 281.977,271.522 282.643,270.689 283.5,270C 288.823,269.501 294.156,269.334 299.5,269.5 Z"/></g>
<g><path style="opacity:1" fill="#073164" d="M 53.5,274.5 C 55.632,274.554 56.9653,275.554 57.5,277.5C 59.4725,283.918 61.1391,290.418 62.5,297C 61.7832,304.901 60.6165,312.734 59,320.5C 58.2917,321.381 57.4584,322.047 56.5,322.5C 55.7605,306.705 54.7605,291.039 53.5,275.5C 53.5,275.167 53.5,274.833 53.5,274.5 Z"/></g>
<g><path style="opacity:1" fill="#042e64" d="M 268.5,274.5 C 269.5,274.5 270.5,274.5 271.5,274.5C 271.577,275.75 272.244,276.583 273.5,277C 276.146,277.497 278.813,277.664 281.5,277.5C 281.082,278.222 280.416,278.722 279.5,279C 280.094,279.464 280.761,279.631 281.5,279.5C 281.666,289.506 281.5,299.506 281,309.5C 280.683,311.301 280.016,311.634 279,310.5C 275.321,311.885 271.488,312.718 267.5,313C 265.737,316.243 265.071,319.743 265.5,323.5C 269.846,323.666 274.179,323.499 278.5,323C 279.466,320.231 280.799,317.731 282.5,315.5C 282.443,319.505 281.11,323.005 278.5,326C 274.228,326.786 269.894,326.453 265.5,325C 258.112,309.112 258.112,293.279 265.5,277.5C 265.81,275.856 266.81,274.856 268.5,274.5 Z"/></g>
<g><path style="opacity:1" fill="#0557a2" d="M 281.5,279.5 C 288.532,279.17 295.532,279.503 302.5,280.5C 306.667,286.167 310.833,291.833 315,297.5C 315.464,296.906 315.631,296.239 315.5,295.5C 316.752,300.145 317.752,304.978 318.5,310C 317.367,316.239 315.034,321.906 311.5,327C 306.289,331.705 301.955,331.205 298.5,325.5C 297.25,318.08 295.583,310.747 293.5,303.5C 290.628,302.217 287.795,302.217 285,303.5C 283.641,307.405 282.808,311.405 282.5,315.5C 280.799,317.731 279.466,320.231 278.5,323C 274.179,323.499 269.846,323.666 265.5,323.5C 265.071,319.743 265.737,316.243 267.5,313C 271.488,312.718 275.321,311.885 279,310.5C 280.016,311.634 280.683,311.301 281,309.5C 281.5,299.506 281.666,289.506 281.5,279.5 Z"/></g>
<g><path style="opacity:0.016" fill="#121316" d="M 306.5,281.5 C 308.262,282.262 309.262,283.596 309.5,285.5C 307.738,284.738 306.738,283.404 306.5,281.5 Z"/></g>
<g><path style="opacity:1" fill="#141828" d="M 247.5,286.5 C 237.676,303.928 222.676,313.595 202.5,315.5C 201.5,315.5 200.5,315.5 199.5,315.5C 172.5,315.5 145.5,315.5 118.5,315.5C 111.68,315.296 105.013,314.129 98.5,312C 86.0647,307.417 76.7313,299.917 70.5,289.5C 71.5,289.5 72.5,289.5 73.5,289.5C 75.2368,291.55 77.2368,293.383 79.5,295C 83.6012,297.437 87.6012,299.27 91.5,300.5C 95.4266,302.953 99.7599,304.62 104.5,305.5C 139.985,305.423 175.319,305.423 210.5,305.5C 212.593,305.514 214.426,304.848 216,303.5C 216.333,303.833 216.667,304.167 217,304.5C 220.205,302.314 223.705,300.814 227.5,300C 233.02,294.979 238.686,290.146 244.5,285.5C 245.417,286.127 246.417,286.461 247.5,286.5 Z"/></g>
<g><path style="opacity:0.871" fill="#225586" d="M 16.5,278.5 C 16.8333,278.5 17.1667,278.5 17.5,278.5C 15.3527,285.937 11.3527,291.937 5.5,296.5C 5.06178,296.565 4.72845,296.399 4.5,296C 9.19087,289.894 13.1909,284.061 16.5,278.5 Z"/></g>
<g><path style="opacity:1" fill="#041d3c" d="M 91.5,300.5 C 87.6012,299.27 83.6012,297.437 79.5,295C 77.2368,293.383 75.2368,291.55 73.5,289.5C 72.365,288.526 71.365,287.359 70.5,286C 71,285.833 71.5,285.667 72,285.5C 76.4157,287.287 80.9157,288.953 85.5,290.5C 110.764,289.392 136.264,289.392 162,290.5C 166.333,289.833 170.667,289.167 175,288.5C 177.111,288.577 179.111,288.911 181,289.5C 183.069,288.736 185.236,288.236 187.5,288C 187.167,287.667 186.833,287.333 186.5,287C 187.766,286.691 188.933,286.191 190,285.5C 204.487,286.48 219.32,286.146 234.5,284.5C 235.347,283.155 236.513,282.155 238,281.5C 239.864,279.045 239.698,276.878 237.5,275C 225.453,273.827 213.453,272.327 201.5,270.5C 200.29,270.068 199.29,269.401 198.5,268.5C 199.117,268.389 199.617,268.056 200,267.5C 204.725,268.933 209.392,269.933 214,270.5C 217.396,270.41 220.73,270.41 224,270.5C 229.917,271.405 235.917,273.072 242,275.5C 241.868,278.439 241.535,281.439 241,284.5C 235,290.162 228.667,295.495 222,300.5C 177.906,300.688 134.406,300.688 91.5,300.5 Z"/></g>
<g><path style="opacity:1" fill="#228dd4" d="M 281.5,277.5 C 281.833,277.5 282.167,277.5 282.5,277.5C 288.833,277.5 295.167,277.5 301.5,277.5C 302.609,277.557 303.609,277.89 304.5,278.5C 305.401,279.29 306.068,280.29 306.5,281.5C 306.738,283.404 307.738,284.738 309.5,285.5C 311.717,287.566 313.717,289.9 315.5,292.5C 315.5,293.5 315.5,294.5 315.5,295.5C 315.631,296.239 315.464,296.906 315,297.5C 310.833,291.833 306.667,286.167 302.5,280.5C 295.532,279.503 288.532,279.17 281.5,279.5C 280.761,279.631 280.094,279.464 279.5,279C 280.416,278.722 281.082,278.222 281.5,277.5 Z"/></g>
<g><path style="opacity:0.055" fill="#0b0e11" d="M 265.5,277.5 C 258.112,293.279 258.112,309.112 265.5,325C 269.894,326.453 274.228,326.786 278.5,326C 281.11,323.005 282.443,319.505 282.5,315.5C 283.939,311.962 285.606,308.462 287.5,305C 289.289,304.48 290.956,304.813 292.5,306C 294.285,312.659 296.285,319.159 298.5,325.5C 301.955,331.205 306.289,331.705 311.5,327C 315.034,321.906 317.367,316.239 318.5,310C 317.752,304.978 316.752,300.145 315.5,295.5C 315.5,294.5 315.5,293.5 315.5,292.5C 324.071,306.627 323.404,320.293 313.5,333.5C 304.991,339.72 298.491,338.053 294,328.5C 293.727,326.899 293.227,325.399 292.5,324C 293.458,322.853 293.125,321.853 291.5,321C 291.833,320.667 292.167,320.333 292.5,320C 291.873,317.657 290.873,315.49 289.5,313.5C 287.657,320.062 284.99,326.229 281.5,332C 275.378,334.124 269.378,333.957 263.5,331.5C 261.707,328.749 260.041,325.916 258.5,323C 258.957,322.586 259.291,322.086 259.5,321.5C 258.154,314.974 256.821,308.14 255.5,301C 256.91,295.101 258.91,289.434 261.5,284C 261.167,283.667 260.833,283.333 260.5,283C 261.715,280.625 263.381,278.791 265.5,277.5 Z"/></g>
<g><path style="opacity:0.055" fill="#0c0e12" d="M 57.5,277.5 C 58.4972,277.47 59.1639,277.97 59.5,279C 62.1217,286.243 64.455,293.576 66.5,301C 65.4631,309.261 63.9631,317.427 62,325.5C 60.3333,328.5 58,330.833 55,332.5C 50.3349,332.714 45.5016,332.381 40.5,331.5C 38.7123,329.424 37.0456,327.257 35.5,325C 35.8333,324.667 36.1667,324.333 36.5,324C 34.7449,321.07 33.5783,317.903 33,314.5C 31.3678,318.346 30.0344,322.346 29,326.5C 25.9514,333.27 21.2847,336.603 15,336.5C 9.02603,334.526 5.02603,330.526 3,324.5C -0.0270735,315.818 0.139593,307.152 3.5,298.5C 3.95689,297.702 4.62356,297.369 5.5,297.5C 4.77173,301.31 4.10507,305.143 3.5,309C 3.48241,311.41 4.14908,313.577 5.5,315.5C 5.73854,323.629 9.90521,328.296 18,329.5C 19.6424,329.022 20.8091,328.022 21.5,326.5C 22.7942,325.71 23.9609,324.71 25,323.5C 26.3984,317.805 27.8984,312.138 29.5,306.5C 29.3201,305.446 28.9867,304.446 28.5,303.5C 30.467,302.316 32.1336,302.649 33.5,304.5C 36.1667,310.833 38.8333,317.167 41.5,323.5C 41.6107,324.117 41.944,324.617 42.5,325C 46.5,325.667 50.5,325.667 54.5,325C 55.056,324.617 55.3893,324.117 55.5,323.5C 56.1667,323.5 56.5,323.167 56.5,322.5C 57.4584,322.047 58.2917,321.381 59,320.5C 60.6165,312.734 61.7832,304.901 62.5,297C 61.1391,290.418 59.4725,283.918 57.5,277.5 Z"/></g>
<g><path style="opacity:1" fill="#086ec1" d="M 49.5,275.5 C 50.8333,275.5 52.1667,275.5 53.5,275.5C 54.7605,291.039 55.7605,306.705 56.5,322.5C 56.5,323.167 56.1667,323.5 55.5,323.5C 51.1667,323.5 46.8333,323.5 42.5,323.5C 40.4034,315.953 38.0701,308.453 35.5,301C 31.9085,300.211 28.4085,300.378 25,301.5C 23.2574,309.294 21.0907,316.961 18.5,324.5C 17.5224,324.023 16.6891,323.357 16,322.5C 15.6667,322.833 15.3333,323.167 15,323.5C 14.0664,320.035 12.5664,319.702 10.5,322.5C 8.56604,320.276 6.89938,317.942 5.5,315.5C 4.14908,313.577 3.48241,311.41 3.5,309C 4.10507,305.143 4.77173,301.31 5.5,297.5C 5.5,297.167 5.5,296.833 5.5,296.5C 11.3527,291.937 15.3527,285.937 17.5,278.5C 18.2905,277.599 19.2905,276.932 20.5,276.5C 30.2193,276.782 39.8859,276.449 49.5,275.5 Z"/></g>
<g><path style="opacity:1" fill="#071b32" d="M 198.5,265.5 C 215.851,267.021 233.184,268.687 250.5,270.5C 250.764,276.102 249.764,281.435 247.5,286.5C 246.417,286.461 245.417,286.127 244.5,285.5C 238.686,290.146 233.02,294.979 227.5,300C 223.705,300.814 220.205,302.314 217,304.5C 216.667,304.167 216.333,303.833 216,303.5C 214.426,304.848 212.593,305.514 210.5,305.5C 175.319,305.423 139.985,305.423 104.5,305.5C 99.7599,304.62 95.4266,302.953 91.5,300.5C 134.406,300.688 177.906,300.688 222,300.5C 228.667,295.495 235,290.162 241,284.5C 241.535,281.439 241.868,278.439 242,275.5C 235.917,273.072 229.917,271.405 224,270.5C 220.73,270.41 217.396,270.41 214,270.5C 209.392,269.933 204.725,268.933 200,267.5C 199.617,268.056 199.117,268.389 198.5,268.5C 196.015,267.26 196.015,266.26 198.5,265.5 Z"/></g>
<g><path style="opacity:1" fill="#063064" d="M 33.5,304.5 C 32.1336,302.649 30.467,302.316 28.5,303.5C 28.9867,304.446 29.3201,305.446 29.5,306.5C 27.8984,312.138 26.3984,317.805 25,323.5C 23.9609,324.71 22.7942,325.71 21.5,326.5C 22.1154,318.367 24.1154,310.7 27.5,303.5C 27.2907,302.914 26.9574,302.414 26.5,302C 29.1667,301.333 31.8333,301.333 34.5,302C 33.7476,302.671 33.4142,303.504 33.5,304.5 Z"/></g>
<g><path style="opacity:0.907" fill="#0b2f59" d="M 298.5,325.5 C 296.285,319.159 294.285,312.659 292.5,306C 290.956,304.813 289.289,304.48 287.5,305C 285.606,308.462 283.939,311.962 282.5,315.5C 282.808,311.405 283.641,307.405 285,303.5C 287.795,302.217 290.628,302.217 293.5,303.5C 295.583,310.747 297.25,318.08 298.5,325.5 Z"/></g>
<g><path style="opacity:1" fill="#0a579f" d="M 42.5,323.5 C 42.1667,323.5 41.8333,323.5 41.5,323.5C 38.8333,317.167 36.1667,310.833 33.5,304.5C 33.4142,303.504 33.7476,302.671 34.5,302C 31.8333,301.333 29.1667,301.333 26.5,302C 26.9574,302.414 27.2907,302.914 27.5,303.5C 24.1154,310.7 22.1154,318.367 21.5,326.5C 20.8091,328.022 19.6424,329.022 18,329.5C 9.90521,328.296 5.73854,323.629 5.5,315.5C 6.89938,317.942 8.56604,320.276 10.5,322.5C 12.5664,319.702 14.0664,320.035 15,323.5C 15.3333,323.167 15.6667,322.833 16,322.5C 16.6891,323.357 17.5224,324.023 18.5,324.5C 21.0907,316.961 23.2574,309.294 25,301.5C 28.4085,300.378 31.9085,300.211 35.5,301C 38.0701,308.453 40.4034,315.953 42.5,323.5 Z"/></g>
<g><path style="opacity:1" fill="#04274c" d="M 118.5,315.5 C 145.5,315.5 172.5,315.5 199.5,315.5C 174.663,316.167 149.663,316.833 124.5,317.5C 123.873,318.417 123.539,319.417 123.5,320.5C 121.5,320.167 119.5,319.833 117.5,319.5C 118.234,318.292 118.567,316.959 118.5,315.5 Z"/></g>
<g><path style="opacity:1" fill="#0767b7" d="M 134.5,322.5 C 131.391,322.736 128.391,322.403 125.5,321.5C 124.209,320.527 124.209,319.527 125.5,318.5C 145.158,317.334 164.825,317.167 184.5,318C 179.136,318.171 173.802,318.671 168.5,319.5C 167.359,320.425 167.359,321.259 168.5,322C 157.172,322.5 145.838,322.667 134.5,322.5 Z"/></g>
<g><path style="opacity:1" fill="#064687" d="M 199.5,315.5 C 200.5,315.5 201.5,315.5 202.5,315.5C 202.5,316.833 202.5,318.167 202.5,319.5C 195.638,321.238 188.638,322.404 181.5,323C 165.661,323.828 149.995,323.661 134.5,322.5C 145.838,322.667 157.172,322.5 168.5,322C 167.359,321.259 167.359,320.425 168.5,319.5C 173.802,318.671 179.136,318.171 184.5,318C 164.825,317.167 145.158,317.334 125.5,318.5C 124.209,319.527 124.209,320.527 125.5,321.5C 124.508,321.672 123.842,321.338 123.5,320.5C 123.539,319.417 123.873,318.417 124.5,317.5C 149.663,316.833 174.663,316.167 199.5,315.5 Z"/></g>
<g><path style="opacity:1" fill="#151618" d="M 117.5,319.5 C 119.5,319.833 121.5,320.167 123.5,320.5C 123.842,321.338 124.508,321.672 125.5,321.5C 128.391,322.403 131.391,322.736 134.5,322.5C 149.995,323.661 165.661,323.828 181.5,323C 188.638,322.404 195.638,321.238 202.5,319.5C 204.5,320.833 206.5,322.167 208.5,323.5C 209.167,323.5 209.5,323.833 209.5,324.5C 211.305,332.068 211.805,339.735 211,347.5C 208.241,359.459 200.741,365.626 188.5,366C 167.467,366.916 146.467,366.583 125.5,365C 117.261,362.427 112.095,356.927 110,348.5C 109.076,340.71 109.576,333.043 111.5,325.5C 111.414,324.504 111.748,323.671 112.5,323C 109.543,322.721 106.877,321.887 104.5,320.5C 107.836,320.467 111.003,321.134 114,322.5C 115.039,321.29 116.206,320.29 117.5,319.5 Z"/></g>
<g><path style="opacity:0.576" fill="#093160" d="M 41.5,323.5 C 41.8333,323.5 42.1667,323.5 42.5,323.5C 46.8333,323.5 51.1667,323.5 55.5,323.5C 55.3893,324.117 55.056,324.617 54.5,325C 50.5,325.667 46.5,325.667 42.5,325C 41.944,324.617 41.6107,324.117 41.5,323.5 Z"/></g>
<g><path style="opacity:0.215" fill="#080b0f" d="M 111.5,325.5 C 109.576,333.043 109.076,340.71 110,348.5C 112.095,356.927 117.261,362.427 125.5,365C 146.467,366.583 167.467,366.916 188.5,366C 200.741,365.626 208.241,359.459 211,347.5C 211.805,339.735 211.305,332.068 209.5,324.5C 212.551,328.798 214.551,333.631 215.5,339C 215.993,347.685 213.993,355.852 209.5,363.5C 207.976,365.858 205.976,367.691 203.5,369C 196.703,371.758 190.37,373.592 184.5,374.5C 184.167,374.5 183.833,374.5 183.5,374.5C 183.167,373.167 182.833,373.167 182.5,374.5C 182.167,374.5 181.833,374.5 181.5,374.5C 181.167,373.167 180.833,373.167 180.5,374.5C 180.167,374.5 179.833,374.5 179.5,374.5C 179.167,373.167 178.833,373.167 178.5,374.5C 178.167,374.5 177.833,374.5 177.5,374.5C 177.167,373.167 176.833,373.167 176.5,374.5C 176.167,374.5 175.833,374.5 175.5,374.5C 175.167,373.167 174.833,373.167 174.5,374.5C 174.167,374.5 173.833,374.5 173.5,374.5C 173.167,373.167 172.833,373.167 172.5,374.5C 172.167,374.5 171.833,374.5 171.5,374.5C 170.833,373.167 170.167,373.167 169.5,374.5C 169.167,374.5 168.833,374.5 168.5,374.5C 168.167,373.167 167.833,373.167 167.5,374.5C 167.167,374.5 166.833,374.5 166.5,374.5C 166.167,373.167 165.833,373.167 165.5,374.5C 165.167,374.5 164.833,374.5 164.5,374.5C 164.167,373.167 163.833,373.167 163.5,374.5C 163.167,374.5 162.833,374.5 162.5,374.5C 161.5,373.167 160.5,373.167 159.5,374.5C 159.167,374.5 158.833,374.5 158.5,374.5C 158.167,373.167 157.833,373.167 157.5,374.5C 157.167,374.5 156.833,374.5 156.5,374.5C 156.167,373.167 155.833,373.167 155.5,374.5C 155.167,374.5 154.833,374.5 154.5,374.5C 154.167,373.167 153.833,373.167 153.5,374.5C 153.167,374.5 152.833,374.5 152.5,374.5C 152.167,373.167 151.833,373.167 151.5,374.5C 151.167,374.5 150.833,374.5 150.5,374.5C 149.833,373.167 149.167,373.167 148.5,374.5C 148.167,374.5 147.833,374.5 147.5,374.5C 147.167,373.167 146.833,373.167 146.5,374.5C 146.167,374.5 145.833,374.5 145.5,374.5C 144.833,373.167 144.167,373.167 143.5,374.5C 143.167,374.5 142.833,374.5 142.5,374.5C 140.833,373.167 139.167,373.167 137.5,374.5C 137.167,374.5 136.833,374.5 136.5,374.5C 136.167,373.167 135.833,373.167 135.5,374.5C 135.167,374.5 134.833,374.5 134.5,374.5C 129.489,373.238 124.156,371.738 118.5,370C 112.176,365.017 107.843,358.683 105.5,351C 106.22,346.717 106.22,342.717 105.5,339C 106.313,333.905 107.813,329.071 110,324.5C 110.383,325.056 110.883,325.389 111.5,325.5 Z"/></g>
<g><path style="opacity:1" fill="#0e0e10" d="M 188.5,326.5 C 193.009,326.637 197.676,326.804 202.5,327C 207.03,332.593 207.197,338.093 203,343.5C 201.334,342.66 201.167,343.16 202.5,345C 201.5,347.333 200.5,349.667 199.5,352C 201.524,353.458 201.691,355.291 200,357.5C 199.667,356.833 199.333,356.167 199,355.5C 198.252,357.332 197.252,358.999 196,360.5C 194.853,359.542 193.853,359.875 193,361.5C 192.667,360.833 192.333,360.167 192,359.5C 191.276,361.959 189.943,362.959 188,362.5C 186.221,365.276 185.221,364.943 185,361.5C 184.667,362.5 184.333,363.5 184,364.5C 181.889,364.423 179.889,364.089 178,363.5C 176.667,364.167 175.333,364.833 174,365.5C 172.667,365.5 171.333,365.5 170,365.5C 169.374,363.009 168.541,363.009 167.5,365.5C 160.388,365.055 153.555,365.055 147,365.5C 145.667,364.833 144.333,364.167 143,363.5C 140.189,363.386 137.522,363.719 135,364.5C 134.147,362.875 133.147,362.542 132,363.5C 131.085,362.672 130.419,361.672 130,360.5C 129.667,361.167 129.333,361.833 129,362.5C 127.668,361.838 126.502,360.672 125.5,359C 124.551,358.383 123.718,358.549 123,359.5C 120.525,355.935 117.692,352.101 114.5,348C 117.167,347.333 117.167,346.667 114.5,346C 117.167,345.333 117.167,344.667 114.5,344C 114.5,342.667 114.5,341.333 114.5,340C 115.744,339.544 116.577,340.044 117,341.5C 117.333,340.5 117.667,339.5 118,338.5C 118.862,340.087 119.529,341.754 120,343.5C 120.667,341.5 121.333,339.5 122,337.5C 122.333,338.5 122.667,339.5 123,340.5C 124.943,340.041 126.276,341.041 127,343.5C 127.333,343.167 127.667,342.833 128,342.5C 128.903,343.701 130.069,344.535 131.5,345C 131.167,345.333 130.833,345.667 130.5,346C 132.44,347.207 134.273,347.374 136,346.5C 138,347.833 140,349.167 142,350.5C 145.84,349.668 149.507,349.668 153,350.5C 154.53,349.364 155.863,348.364 157,347.5C 157.333,348.167 157.667,348.833 158,349.5C 159.262,347.697 160.929,346.364 163,345.5C 163.667,346.167 164.333,346.833 165,347.5C 172.023,340.477 177.857,334.643 182.5,330C 184.64,328.199 186.64,327.032 188.5,326.5 Z"/></g>
<g><path style="opacity:1" fill="#2b2c2b" d="M 149.5,328.5 C 146.455,328.704 143.621,328.704 141,328.5C 137.989,330 138.489,330.834 142.5,331C 143.333,331.833 144.167,332.667 145,333.5C 149.133,332.709 153.3,331.876 157.5,331C 157.833,330.667 158.167,330.333 158.5,330C 155.887,329.131 153.22,328.631 150.5,328.5C 156.371,327.313 162.371,327.48 168.5,329C 164.128,334.119 158.962,337.286 153,338.5C 149.667,338.5 146.333,338.5 143,338.5C 142.333,337.833 141.667,337.167 141,336.5C 139.667,336.5 138.333,336.5 137,336.5C 135.023,333.688 132.856,331.022 130.5,328.5C 131.183,325.539 132.016,325.205 133,327.5C 134.333,326.833 135.667,326.167 137,325.5C 141.41,325.943 145.577,326.943 149.5,328.5 Z"/></g>
<g><path style="opacity:1" fill="#4b4e53" d="M 149.5,328.5 C 149.833,328.5 150.167,328.5 150.5,328.5C 153.22,328.631 155.887,329.131 158.5,330C 158.167,330.333 157.833,330.667 157.5,331C 153.3,331.876 149.133,332.709 145,333.5C 144.167,332.667 143.333,331.833 142.5,331C 138.489,330.834 137.989,330 141,328.5C 143.621,328.704 146.455,328.704 149.5,328.5 Z"/></g>
</svg>
